<?xml version="1.0" encoding="UTF-8"?>
<svg id="Layer_2" data-name="Layer 2" xmlns="http://www.w3.org/2000/svg" viewBox="0 0 89.5 48.48">
  <defs>
    <style>
      .cls-1 {
        font-family: Poppins-SemiBold, Poppins;
        font-size: 4.5px;
        font-weight: 600;
      }

      .cls-1, .cls-2 {
        fill: #4848ff;
      }

      .cls-2 {
        stroke-width: 0px;
      }
    </style>
  </defs>
  <g id="Layer_1-2" data-name="Layer 1">
    <g>
      <g>
        <g>
          <path class="cls-2" d="M26.64,17.38c-1.36-1.96-3.21-3.27-5.53-3.92,1.57-1.45,2.34-3.36,2.34-5.72s-.87-4.19-2.62-5.61c-1.74-1.41-3.81-2.12-6.21-2.12H4.11v10.36h5.82v-4.53h4.2c1.12,0,2,.27,2.64.79.63.53.95,1.23.95,2.1,0,1.34-.98,2.52-2.94,3.54-.11.07-.48.26-1.12.57-.18.09-.34.17-.5.24-9.92,5.49-8.92,13.5-9.06,15.35v6.99h12.47c3.34,0,6.19-1.1,8.55-3.3,2.36-2.2,3.54-4.82,3.54-7.87,0-2.62-.68-4.91-2.04-6.87ZM20.97,27.76c-1.1,1.11-2.69,1.66-4.76,1.66h-6.27v-4.63c0-1.96.65-3.62,1.93-4.98,1.29-1.36,2.94-2.04,4.93-2.04,1.7,0,3.1.56,4.19,1.68,1.09,1.13,1.64,2.49,1.64,4.09,0,1.71-.56,3.11-1.67,4.22Z"/>
          <path class="cls-2" d="M.87,13.07c-.15-.08-.32-.15-.5-.24-.14-.07-.26-.13-.37-.18v5.64c.81.34,1.54.84,2.18,1.52.71.75,1.23,1.6,1.54,2.53.46-1.52,1.26-3.24,2.59-4.98-1.29-1.49-3.05-2.97-5.44-4.29Z"/>
        </g>
        <g>
          <g>
            <path class="cls-2" d="M34.68,25.23v-6.64h2.88c.44,0,.82.07,1.12.2.31.13.54.32.7.56.16.25.24.54.24.88,0,.38-.09.7-.28.95-.19.25-.46.43-.82.52v-.19c.28.07.54.18.76.34.22.16.39.35.51.59.12.23.18.5.18.8,0,.33-.05.62-.16.87-.11.25-.27.46-.47.62-.21.16-.45.29-.74.38-.28.08-.6.13-.94.13h-2.98ZM36.04,21.28h1.35c.17,0,.32-.03.45-.09s.22-.15.29-.26.1-.23.1-.38c0-.23-.08-.41-.23-.54-.15-.13-.38-.19-.68-.19h-1.27v1.46ZM36.04,24h1.56c.2,0,.38-.03.52-.09.14-.06.25-.15.33-.28.08-.13.11-.28.11-.45s-.04-.3-.12-.42c-.08-.11-.2-.2-.35-.26-.15-.06-.33-.09-.54-.09h-1.51v1.58Z"/>
            <path class="cls-2" d="M42.78,25.23v-3.31l.07.47-2.69-3.8h1.64l2.05,2.94-.65-.03,1.85-2.91h1.58l-2.57,3.9.14-.64v3.39h-1.43Z"/>
            <path class="cls-2" d="M36.06,35.43v-5.36h-1.94v-1.28h5.35v1.28h-1.99v5.36h-1.42Z"/>
            <path class="cls-2" d="M41.9,35.53c-.54,0-1.02-.11-1.42-.33s-.72-.53-.95-.91c-.23-.39-.34-.83-.34-1.33,0-.39.06-.74.19-1.06.13-.32.3-.6.53-.84.23-.24.5-.42.81-.55.31-.13.65-.19,1.02-.19.34,0,.66.06.95.19.29.12.54.3.75.52s.38.49.49.79.16.64.15,1v.42h-4.04l-.22-.83h3.14l-.15.17v-.21c-.01-.17-.07-.33-.17-.46-.1-.14-.22-.25-.38-.32-.15-.08-.32-.11-.51-.11-.28,0-.51.05-.71.16-.19.11-.34.27-.44.47s-.15.46-.15.76.06.57.19.79c.13.22.31.39.55.52s.52.18.84.18c.22,0,.42-.03.61-.1.18-.07.38-.19.59-.36l.65.9c-.18.17-.39.3-.61.41-.22.11-.45.19-.68.25-.23.06-.46.08-.69.08Z"/>
            <path class="cls-2" d="M47.26,35.53c-.48,0-.91-.11-1.29-.34-.38-.23-.68-.54-.9-.93s-.33-.84-.33-1.34.11-.94.33-1.33c.22-.39.52-.71.9-.93s.81-.34,1.29-.34c.45,0,.86.08,1.23.25.37.16.66.39.87.68l-.74.89c-.09-.12-.2-.23-.33-.33-.13-.1-.28-.18-.43-.23-.15-.06-.31-.09-.48-.09-.26,0-.49.06-.69.19-.2.12-.36.29-.47.51s-.17.46-.17.74.06.51.18.73c.12.21.28.38.48.51s.43.19.68.19c.16,0,.32-.02.47-.07.15-.05.28-.12.41-.21.13-.1.25-.21.36-.34l.73.89c-.22.27-.51.49-.89.66-.38.17-.78.25-1.21.25Z"/>
            <path class="cls-2" d="M50.22,35.43v-7.02h1.33v3.03l-.27.11c.07-.23.19-.43.38-.62.18-.19.4-.34.65-.45.25-.11.52-.17.8-.17.38,0,.7.08.95.23.26.15.45.38.58.69.13.31.19.68.19,1.13v3.08h-1.35v-2.97c0-.23-.03-.42-.09-.57-.06-.15-.16-.26-.29-.34-.13-.07-.29-.1-.48-.09-.15,0-.29.02-.42.07-.13.05-.24.12-.33.2-.09.09-.16.19-.22.3-.05.11-.08.24-.08.37v3.02h-1.35Z"/>
            <path class="cls-2" d="M56.12,35.43v-5.02h1.29l.04,1.03-.27.11c.07-.23.19-.43.38-.62.18-.19.4-.34.65-.45.25-.11.52-.17.8-.17.38,0,.7.08.95.23.26.15.45.38.58.69.13.31.19.68.19,1.13v3.08h-1.35v-2.97c0-.23-.03-.42-.09-.57-.06-.15-.16-.26-.29-.34-.13-.07-.29-.1-.48-.09-.15,0-.29.02-.42.07-.13.05-.24.12-.33.2-.09.09-.16.19-.22.3-.05.11-.08.24-.08.37v3.02h-1.35Z"/>
            <path class="cls-2" d="M64.36,35.53c-.51,0-.97-.11-1.37-.34-.4-.22-.72-.53-.95-.92-.23-.39-.35-.84-.35-1.35s.12-.95.35-1.34c.23-.39.55-.7.95-.93.4-.23.86-.34,1.37-.34s.96.11,1.36.34.72.54.94.93c.23.39.34.84.34,1.34s-.11.96-.34,1.35c-.23.39-.54.7-.94.92s-.86.34-1.36.34ZM64.36,34.35c.25,0,.47-.06.66-.18.2-.12.35-.29.46-.51.11-.22.17-.46.17-.74s-.06-.53-.17-.75c-.11-.22-.26-.39-.46-.51-.2-.12-.42-.18-.66-.18s-.48.06-.67.19c-.2.13-.35.3-.46.51s-.17.46-.16.74c0,.27.05.52.16.74.11.22.27.39.46.51.2.12.42.18.67.18Z"/>
            <path class="cls-2" d="M68.03,35.43v-7.02h1.35v7.02h-1.35Z"/>
            <path class="cls-2" d="M72.99,35.53c-.51,0-.97-.11-1.37-.34-.4-.22-.72-.53-.95-.92-.23-.39-.35-.84-.35-1.35s.12-.95.35-1.34c.23-.39.55-.7.95-.93.4-.23.86-.34,1.37-.34s.96.11,1.36.34.72.54.94.93c.23.39.34.84.34,1.34s-.11.96-.34,1.35c-.23.39-.54.7-.94.92s-.86.34-1.36.34ZM72.99,34.35c.25,0,.47-.06.66-.18.2-.12.35-.29.46-.51.11-.22.17-.46.17-.74s-.06-.53-.17-.75c-.11-.22-.26-.39-.46-.51-.2-.12-.42-.18-.66-.18s-.48.06-.67.19c-.2.13-.35.3-.46.51s-.17.46-.16.74c0,.27.05.52.16.74.11.22.27.39.46.51.2.12.42.18.67.18Z"/>
            <path class="cls-2" d="M78.94,37.62c-.4,0-.79-.06-1.18-.18-.39-.12-.7-.27-.94-.45l.47-.97c.13.09.27.17.44.24.16.07.34.12.52.16s.37.06.56.06c.33,0,.6-.05.81-.15.21-.1.37-.25.48-.45s.16-.45.16-.76v-.87l.23.05c-.04.21-.14.4-.31.57s-.39.31-.65.42-.53.16-.8.16c-.47,0-.88-.11-1.24-.32-.36-.22-.65-.51-.85-.89s-.31-.82-.31-1.31.1-.95.31-1.34c.21-.39.49-.7.84-.92s.76-.34,1.22-.34c.19,0,.37.02.55.07.17.04.34.11.48.19.15.08.28.17.4.27.12.1.21.2.29.32.08.11.12.23.14.34l-.27.08.04-1.15h1.29v4.64c0,.41-.06.78-.18,1.09s-.3.58-.53.8c-.23.22-.51.38-.84.5-.33.11-.7.17-1.12.17ZM78.98,34.35c.27,0,.5-.06.7-.18.2-.12.35-.29.46-.5.11-.21.16-.47.16-.76s-.05-.54-.16-.75c-.11-.22-.26-.39-.46-.51-.2-.12-.43-.18-.7-.18s-.49.06-.69.18c-.2.12-.35.29-.46.51-.11.22-.16.46-.16.75s.05.54.16.75c.11.22.26.39.46.51.2.12.43.18.69.18Z"/>
            <path class="cls-2" d="M83.64,37.62l1.1-2.58.02.78-2.45-5.4h1.53l1.22,2.89c.05.11.1.23.15.38s.09.28.12.41l-.23.09c.04-.11.08-.23.13-.37.05-.14.1-.29.15-.45l1.05-2.96h1.54l-2.11,5.02-.86,2.18h-1.37Z"/>
          </g>
          <g>
            <path class="cls-2" d="M34.68,25.23v-6.64h2.88c.44,0,.82.07,1.12.2.31.13.54.32.7.56.16.25.24.54.24.88,0,.38-.09.7-.28.95-.19.25-.46.43-.82.52v-.19c.28.07.54.18.76.34.22.16.39.35.51.59s.18.5.18.8c0,.33-.05.62-.16.87-.11.25-.27.46-.47.62-.21.16-.45.29-.74.38-.28.08-.6.13-.94.13h-2.98ZM36.04,21.28h1.35c.17,0,.32-.03.45-.09.13-.06.22-.15.29-.26s.1-.23.1-.38c0-.23-.08-.41-.23-.54-.15-.13-.38-.19-.68-.19h-1.27v1.46ZM36.04,24h1.56c.2,0,.38-.03.52-.09.14-.06.25-.15.33-.28.08-.13.11-.28.11-.45s-.04-.3-.12-.42c-.08-.11-.2-.2-.35-.26-.15-.06-.33-.09-.54-.09h-1.51v1.58Z"/>
            <path class="cls-2" d="M42.78,25.23v-3.31l.07.47-2.69-3.8h1.64l2.05,2.94-.65-.03,1.85-2.91h1.58l-2.57,3.9.14-.64v3.39h-1.43Z"/>
            <path class="cls-2" d="M36.06,35.43v-5.36h-1.94v-1.28h5.35v1.28h-1.99v5.36h-1.42Z"/>
            <path class="cls-2" d="M41.9,35.53c-.54,0-1.02-.11-1.42-.33-.41-.22-.72-.53-.95-.91s-.34-.83-.34-1.33c0-.39.06-.74.19-1.06.13-.32.3-.6.53-.84.23-.24.5-.42.81-.55.31-.13.65-.19,1.02-.19.34,0,.66.06.95.19.29.12.54.3.75.52s.38.49.49.79c.11.3.17.64.15,1v.42h-4.04l-.22-.83h3.14l-.15.17v-.21c-.01-.17-.07-.33-.17-.46-.1-.14-.22-.25-.38-.32-.15-.08-.32-.11-.51-.11-.28,0-.51.05-.71.16-.19.11-.34.27-.44.47-.1.21-.15.46-.15.76s.07.57.2.79c.13.22.31.39.55.52s.52.18.84.18c.22,0,.42-.03.61-.1.18-.07.38-.19.59-.36l.65.9c-.18.17-.39.3-.61.41-.22.11-.45.19-.68.25-.23.06-.46.08-.69.08Z"/>
            <path class="cls-2" d="M47.26,35.53c-.48,0-.91-.11-1.29-.34-.38-.23-.68-.54-.9-.93-.22-.39-.33-.84-.33-1.34s.11-.94.33-1.33c.22-.39.52-.71.9-.93.38-.23.81-.34,1.29-.34.45,0,.86.08,1.23.25.37.16.66.39.87.68l-.74.89c-.09-.12-.2-.23-.33-.33-.13-.1-.28-.18-.43-.23-.15-.06-.31-.09-.48-.09-.26,0-.49.06-.69.19-.2.12-.36.29-.47.51-.11.21-.17.46-.17.74s.06.51.18.73.28.38.48.51c.2.13.43.19.68.19.17,0,.32-.02.47-.07.15-.05.28-.12.41-.21.13-.1.25-.21.36-.34l.73.89c-.21.27-.51.49-.89.66-.38.17-.78.25-1.21.25Z"/>
            <path class="cls-2" d="M50.22,35.43v-7.02h1.33v3.03l-.27.11c.07-.23.19-.43.38-.62.18-.19.4-.34.65-.45.25-.11.52-.17.8-.17.38,0,.7.08.95.23.26.15.45.38.58.69s.19.68.19,1.13v3.08h-1.35v-2.97c0-.23-.03-.42-.09-.57-.06-.15-.16-.26-.29-.34-.13-.07-.29-.1-.48-.09-.15,0-.29.02-.42.07-.13.05-.24.12-.33.2-.09.09-.16.19-.22.3-.05.11-.08.24-.08.37v3.02h-1.35Z"/>
            <path class="cls-2" d="M56.12,35.43v-5.02h1.29l.04,1.03-.27.11c.07-.23.19-.43.38-.62s.4-.34.65-.45c.25-.11.52-.17.8-.17.38,0,.7.08.95.23.26.15.45.38.58.69.13.31.2.68.2,1.13v3.08h-1.35v-2.97c0-.23-.03-.42-.09-.57-.06-.15-.16-.26-.29-.34-.13-.07-.29-.1-.48-.09-.15,0-.29.02-.42.07-.13.05-.24.12-.33.2-.09.09-.17.19-.22.3-.05.11-.08.24-.08.37v3.02h-1.35Z"/>
            <path class="cls-2" d="M64.36,35.53c-.51,0-.97-.11-1.37-.34-.4-.22-.72-.53-.95-.92-.23-.39-.35-.84-.35-1.35s.12-.95.35-1.34c.23-.39.55-.7.95-.93.4-.23.86-.34,1.37-.34s.96.11,1.36.34c.4.23.72.54.94.93.23.39.34.84.34,1.34s-.11.96-.34,1.35c-.23.39-.54.7-.94.92-.4.22-.86.34-1.36.34ZM64.36,34.35c.25,0,.47-.06.66-.18.2-.12.35-.29.46-.51.11-.22.17-.46.17-.74s-.06-.53-.17-.75c-.11-.22-.26-.39-.46-.51s-.42-.18-.66-.18-.48.06-.67.19-.35.3-.46.51c-.11.21-.17.46-.16.74,0,.27.05.52.16.74.11.22.27.39.46.51.2.12.42.18.67.18Z"/>
            <path class="cls-2" d="M68.03,35.43v-7.02h1.35v7.02h-1.35Z"/>
            <path class="cls-2" d="M72.99,35.53c-.51,0-.97-.11-1.37-.34s-.72-.53-.95-.92c-.23-.39-.35-.84-.35-1.35s.12-.95.35-1.34c.23-.39.55-.7.95-.93s.86-.34,1.37-.34.96.11,1.36.34c.4.23.72.54.94.93.23.39.34.84.34,1.34s-.11.96-.34,1.35c-.23.39-.54.7-.94.92-.4.22-.86.34-1.36.34ZM72.99,34.35c.25,0,.47-.06.67-.18.2-.12.35-.29.46-.51.11-.22.17-.46.17-.74s-.06-.53-.17-.75c-.11-.22-.26-.39-.46-.51-.2-.12-.42-.18-.67-.18s-.48.06-.67.19c-.2.13-.35.3-.46.51-.11.21-.17.46-.16.74,0,.27.05.52.16.74.11.22.27.39.46.51.2.12.42.18.67.18Z"/>
            <path class="cls-2" d="M78.94,37.62c-.4,0-.79-.06-1.18-.18-.39-.12-.7-.27-.94-.45l.47-.97c.13.09.27.17.44.24.16.07.34.12.52.16.18.04.37.06.56.06.33,0,.6-.05.81-.15.21-.1.37-.25.48-.45s.16-.45.16-.76v-.87l.23.05c-.04.21-.14.4-.31.57s-.39.31-.65.42c-.26.1-.53.16-.8.16-.47,0-.88-.11-1.24-.32-.36-.22-.65-.51-.85-.89s-.31-.82-.31-1.31.1-.95.31-1.34c.21-.39.49-.7.84-.92s.76-.34,1.22-.34c.19,0,.37.02.55.07.17.04.33.11.48.19.15.08.28.17.4.27.12.1.21.2.29.32.08.11.12.23.14.34l-.28.08.04-1.15h1.29v4.64c0,.41-.06.78-.18,1.09s-.3.58-.53.8c-.23.22-.51.38-.84.5-.33.11-.7.17-1.12.17ZM78.98,34.35c.27,0,.5-.06.7-.18.2-.12.35-.29.46-.5.11-.21.16-.47.16-.76s-.05-.54-.16-.75c-.11-.22-.26-.39-.46-.51-.2-.12-.43-.18-.7-.18s-.49.06-.69.18c-.2.12-.35.29-.46.51-.11.22-.16.46-.16.75s.05.54.16.75c.11.22.26.39.46.51.2.12.43.18.69.18Z"/>
            <path class="cls-2" d="M83.64,37.62l1.1-2.58.02.78-2.45-5.4h1.53l1.22,2.89c.05.11.1.23.15.38.05.14.09.28.12.41l-.23.09c.04-.11.08-.23.13-.37.05-.14.1-.29.15-.45l1.05-2.96h1.54l-2.11,5.02-.86,2.18h-1.37Z"/>
          </g>
        </g>
      </g>
      <text class="cls-1" transform="translate(4.17 45.81)"><tspan x="0" y="0">A New Edge of Digital Trandformation</tspan></text>
    </g>
  </g>
</svg>