<svg xmlns="http://www.w3.org/2000/svg" xmlns:xlink="http://www.w3.org/1999/xlink" width="500" zoomAndPan="magnify" viewBox="0 0 375 374.999991" height="500" preserveAspectRatio="xMidYMid meet" version="1.0"><defs><g/><clipPath id="808884d693"><path d="M 70.109375 164.625 L 115.855469 164.625 L 115.855469 210.375 L 70.109375 210.375 Z M 70.109375 164.625 " clip-rule="nonzero"/></clipPath><clipPath id="ae6e727a5f"><path d="M 92.984375 164.625 C 80.351562 164.625 70.109375 174.867188 70.109375 187.5 C 70.109375 200.132812 80.351562 210.375 92.984375 210.375 C 105.617188 210.375 115.855469 200.132812 115.855469 187.5 C 115.855469 174.867188 105.617188 164.625 92.984375 164.625 Z M 92.984375 164.625 " clip-rule="nonzero"/></clipPath><clipPath id="bf2a7106d1"><path d="M 76.101562 177.320312 L 109.914062 177.320312 L 109.914062 206.863281 L 76.101562 206.863281 Z M 76.101562 177.320312 " clip-rule="nonzero"/></clipPath><clipPath id="7576d46ceb"><path d="M 92.984375 206.863281 L 109.867188 177.320312 L 76.101562 177.320312 Z M 92.984375 206.863281 " clip-rule="nonzero"/></clipPath><clipPath id="bc4ed2d911"><path d="M 76.109375 177.320312 L 109.851562 177.320312 L 109.851562 206.570312 L 76.109375 206.570312 Z M 76.109375 177.320312 " clip-rule="nonzero"/></clipPath><clipPath id="0c44de435d"><path d="M 92.984375 206.851562 L 109.859375 177.320312 L 76.109375 177.320312 Z M 92.984375 206.851562 " clip-rule="nonzero"/></clipPath><linearGradient x1="-0.00000677202" gradientTransform="matrix(0.703125, 0, 0, 0.703125, 0.00000476157, 0.0000146512)" y1="28" x2="63.988881" gradientUnits="userSpaceOnUse" y2="28" id="20a1ef5d68"><stop stop-opacity="1" stop-color="rgb(4.699707%, 75.299072%, 87.5%)" offset="0"/><stop stop-opacity="1" stop-color="rgb(5.072021%, 75.344849%, 87.294006%)" offset="0.00390625"/><stop stop-opacity="1" stop-color="rgb(5.444336%, 75.392151%, 87.088013%)" offset="0.0078125"/><stop stop-opacity="1" stop-color="rgb(5.815125%, 75.437927%, 86.882019%)" offset="0.0117188"/><stop stop-opacity="1" stop-color="rgb(6.187439%, 75.483704%, 86.677551%)" offset="0.015625"/><stop stop-opacity="1" stop-color="rgb(6.559753%, 75.52948%, 86.471558%)" offset="0.0195312"/><stop stop-opacity="1" stop-color="rgb(6.932068%, 75.575256%, 86.26709%)" offset="0.0234375"/><stop stop-opacity="1" stop-color="rgb(7.304382%, 75.621033%, 86.061096%)" offset="0.0273438"/><stop stop-opacity="1" stop-color="rgb(7.676697%, 75.668335%, 85.855103%)" offset="0.03125"/><stop stop-opacity="1" stop-color="rgb(8.049011%, 75.714111%, 85.649109%)" offset="0.0351562"/><stop stop-opacity="1" stop-color="rgb(8.421326%, 75.759888%, 85.444641%)" offset="0.0390625"/><stop stop-opacity="1" stop-color="rgb(8.79364%, 75.805664%, 85.238647%)" offset="0.0429687"/><stop stop-opacity="1" stop-color="rgb(9.165955%, 75.852966%, 85.03418%)" offset="0.046875"/><stop stop-opacity="1" stop-color="rgb(9.538269%, 75.898743%, 84.828186%)" offset="0.0507813"/><stop stop-opacity="1" stop-color="rgb(9.910583%, 75.944519%, 84.623718%)" offset="0.0546875"/><stop stop-opacity="1" stop-color="rgb(10.281372%, 75.990295%, 84.417725%)" offset="0.0585938"/><stop stop-opacity="1" stop-color="rgb(10.653687%, 76.036072%, 84.211731%)" offset="0.0625"/><stop stop-opacity="1" stop-color="rgb(11.026001%, 76.081848%, 84.005737%)" offset="0.0664062"/><stop stop-opacity="1" stop-color="rgb(11.398315%, 76.12915%, 83.80127%)" offset="0.0703125"/><stop stop-opacity="1" stop-color="rgb(11.77063%, 76.174927%, 83.595276%)" offset="0.0742188"/><stop stop-opacity="1" stop-color="rgb(12.142944%, 76.220703%, 83.390808%)" offset="0.078125"/><stop stop-opacity="1" stop-color="rgb(12.515259%, 76.266479%, 83.184814%)" offset="0.0820312"/><stop stop-opacity="1" stop-color="rgb(12.887573%, 76.313782%, 82.980347%)" offset="0.0859375"/><stop stop-opacity="1" stop-color="rgb(13.259888%, 76.359558%, 82.774353%)" offset="0.0898437"/><stop stop-opacity="1" stop-color="rgb(13.632202%, 76.405334%, 82.568359%)" offset="0.09375"/><stop stop-opacity="1" stop-color="rgb(14.004517%, 76.451111%, 82.362366%)" offset="0.0976563"/><stop stop-opacity="1" stop-color="rgb(14.376831%, 76.496887%, 82.157898%)" offset="0.101563"/><stop stop-opacity="1" stop-color="rgb(14.749146%, 76.542664%, 81.951904%)" offset="0.105469"/><stop stop-opacity="1" stop-color="rgb(15.12146%, 76.589966%, 81.747437%)" offset="0.109375"/><stop stop-opacity="1" stop-color="rgb(15.492249%, 76.635742%, 81.541443%)" offset="0.113281"/><stop stop-opacity="1" stop-color="rgb(15.864563%, 76.681519%, 81.336975%)" offset="0.117188"/><stop stop-opacity="1" stop-color="rgb(16.236877%, 76.727295%, 81.130981%)" offset="0.121094"/><stop stop-opacity="1" stop-color="rgb(16.609192%, 76.774597%, 80.924988%)" offset="0.125"/><stop stop-opacity="1" stop-color="rgb(16.981506%, 76.820374%, 80.718994%)" offset="0.128906"/><stop stop-opacity="1" stop-color="rgb(17.353821%, 76.86615%, 80.514526%)" offset="0.132812"/><stop stop-opacity="1" stop-color="rgb(17.726135%, 76.911926%, 80.308533%)" offset="0.136719"/><stop stop-opacity="1" stop-color="rgb(18.09845%, 76.957703%, 80.104065%)" offset="0.140625"/><stop stop-opacity="1" stop-color="rgb(18.470764%, 77.003479%, 79.898071%)" offset="0.144531"/><stop stop-opacity="1" stop-color="rgb(18.843079%, 77.050781%, 79.692078%)" offset="0.148438"/><stop stop-opacity="1" stop-color="rgb(19.215393%, 77.096558%, 79.486084%)" offset="0.152344"/><stop stop-opacity="1" stop-color="rgb(19.587708%, 77.142334%, 79.281616%)" offset="0.15625"/><stop stop-opacity="1" stop-color="rgb(19.960022%, 77.18811%, 79.075623%)" offset="0.160156"/><stop stop-opacity="1" stop-color="rgb(20.332336%, 77.235413%, 78.871155%)" offset="0.164062"/><stop stop-opacity="1" stop-color="rgb(20.703125%, 77.281189%, 78.665161%)" offset="0.167969"/><stop stop-opacity="1" stop-color="rgb(21.075439%, 77.326965%, 78.460693%)" offset="0.171875"/><stop stop-opacity="1" stop-color="rgb(21.447754%, 77.372742%, 78.2547%)" offset="0.175781"/><stop stop-opacity="1" stop-color="rgb(21.820068%, 77.418518%, 78.048706%)" offset="0.179687"/><stop stop-opacity="1" stop-color="rgb(22.192383%, 77.464294%, 77.842712%)" offset="0.183594"/><stop stop-opacity="1" stop-color="rgb(22.564697%, 77.511597%, 77.638245%)" offset="0.1875"/><stop stop-opacity="1" stop-color="rgb(22.937012%, 77.557373%, 77.432251%)" offset="0.191406"/><stop stop-opacity="1" stop-color="rgb(23.309326%, 77.603149%, 77.227783%)" offset="0.195313"/><stop stop-opacity="1" stop-color="rgb(23.681641%, 77.648926%, 77.02179%)" offset="0.199219"/><stop stop-opacity="1" stop-color="rgb(24.053955%, 77.696228%, 76.817322%)" offset="0.203125"/><stop stop-opacity="1" stop-color="rgb(24.42627%, 77.742004%, 76.611328%)" offset="0.207031"/><stop stop-opacity="1" stop-color="rgb(24.798584%, 77.787781%, 76.405334%)" offset="0.210938"/><stop stop-opacity="1" stop-color="rgb(25.170898%, 77.833557%, 76.199341%)" offset="0.214844"/><stop stop-opacity="1" stop-color="rgb(25.543213%, 77.879333%, 75.994873%)" offset="0.21875"/><stop stop-opacity="1" stop-color="rgb(25.914001%, 77.92511%, 75.788879%)" offset="0.222656"/><stop stop-opacity="1" stop-color="rgb(26.286316%, 77.972412%, 75.584412%)" offset="0.226562"/><stop stop-opacity="1" stop-color="rgb(26.65863%, 78.018188%, 75.378418%)" offset="0.230469"/><stop stop-opacity="1" stop-color="rgb(27.030945%, 78.063965%, 75.17395%)" offset="0.234375"/><stop stop-opacity="1" stop-color="rgb(27.403259%, 78.109741%, 74.967957%)" offset="0.238281"/><stop stop-opacity="1" stop-color="rgb(27.775574%, 78.157043%, 74.761963%)" offset="0.242188"/><stop stop-opacity="1" stop-color="rgb(28.147888%, 78.20282%, 74.555969%)" offset="0.246094"/><stop stop-opacity="1" stop-color="rgb(28.520203%, 78.248596%, 74.351501%)" offset="0.25"/><stop stop-opacity="1" stop-color="rgb(28.892517%, 78.294373%, 74.145508%)" offset="0.253906"/><stop stop-opacity="1" stop-color="rgb(29.264832%, 78.340149%, 73.94104%)" offset="0.257812"/><stop stop-opacity="1" stop-color="rgb(29.637146%, 78.385925%, 73.735046%)" offset="0.261719"/><stop stop-opacity="1" stop-color="rgb(30.00946%, 78.433228%, 73.529053%)" offset="0.265625"/><stop stop-opacity="1" stop-color="rgb(30.380249%, 78.479004%, 73.323059%)" offset="0.269531"/><stop stop-opacity="1" stop-color="rgb(30.752563%, 78.52478%, 73.118591%)" offset="0.273438"/><stop stop-opacity="1" stop-color="rgb(31.124878%, 78.570557%, 72.912598%)" offset="0.277344"/><stop stop-opacity="1" stop-color="rgb(31.497192%, 78.617859%, 72.70813%)" offset="0.28125"/><stop stop-opacity="1" stop-color="rgb(31.869507%, 78.663635%, 72.502136%)" offset="0.285156"/><stop stop-opacity="1" stop-color="rgb(32.241821%, 78.709412%, 72.297668%)" offset="0.289062"/><stop stop-opacity="1" stop-color="rgb(32.614136%, 78.755188%, 72.091675%)" offset="0.292969"/><stop stop-opacity="1" stop-color="rgb(32.98645%, 78.80249%, 71.885681%)" offset="0.296875"/><stop stop-opacity="1" stop-color="rgb(33.358765%, 78.848267%, 71.679688%)" offset="0.300781"/><stop stop-opacity="1" stop-color="rgb(33.731079%, 78.894043%, 71.47522%)" offset="0.304688"/><stop stop-opacity="1" stop-color="rgb(34.103394%, 78.939819%, 71.269226%)" offset="0.308594"/><stop stop-opacity="1" stop-color="rgb(34.475708%, 78.985596%, 71.064758%)" offset="0.3125"/><stop stop-opacity="1" stop-color="rgb(34.848022%, 79.031372%, 70.858765%)" offset="0.316406"/><stop stop-opacity="1" stop-color="rgb(35.220337%, 79.078674%, 70.654297%)" offset="0.320312"/><stop stop-opacity="1" stop-color="rgb(35.591125%, 79.124451%, 70.448303%)" offset="0.324219"/><stop stop-opacity="1" stop-color="rgb(35.96344%, 79.170227%, 70.24231%)" offset="0.328125"/><stop stop-opacity="1" stop-color="rgb(36.335754%, 79.216003%, 70.036316%)" offset="0.332031"/><stop stop-opacity="1" stop-color="rgb(36.708069%, 79.263306%, 69.831848%)" offset="0.335937"/><stop stop-opacity="1" stop-color="rgb(37.080383%, 79.309082%, 69.625854%)" offset="0.339844"/><stop stop-opacity="1" stop-color="rgb(37.452698%, 79.354858%, 69.421387%)" offset="0.34375"/><stop stop-opacity="1" stop-color="rgb(37.825012%, 79.400635%, 69.215393%)" offset="0.347656"/><stop stop-opacity="1" stop-color="rgb(38.197327%, 79.446411%, 69.010925%)" offset="0.351562"/><stop stop-opacity="1" stop-color="rgb(38.569641%, 79.492188%, 68.804932%)" offset="0.355469"/><stop stop-opacity="1" stop-color="rgb(38.941956%, 79.53949%, 68.598938%)" offset="0.359375"/><stop stop-opacity="1" stop-color="rgb(39.31427%, 79.585266%, 68.392944%)" offset="0.363281"/><stop stop-opacity="1" stop-color="rgb(39.686584%, 79.631042%, 68.188477%)" offset="0.367188"/><stop stop-opacity="1" stop-color="rgb(40.058899%, 79.676819%, 67.982483%)" offset="0.371094"/><stop stop-opacity="1" stop-color="rgb(40.431213%, 79.724121%, 67.778015%)" offset="0.375"/><stop stop-opacity="1" stop-color="rgb(40.802002%, 79.769897%, 67.572021%)" offset="0.378906"/><stop stop-opacity="1" stop-color="rgb(41.174316%, 79.815674%, 67.367554%)" offset="0.382812"/><stop stop-opacity="1" stop-color="rgb(41.546631%, 79.86145%, 67.16156%)" offset="0.386719"/><stop stop-opacity="1" stop-color="rgb(41.918945%, 79.907227%, 66.955566%)" offset="0.390625"/><stop stop-opacity="1" stop-color="rgb(42.29126%, 79.953003%, 66.749573%)" offset="0.394531"/><stop stop-opacity="1" stop-color="rgb(42.663574%, 80.000305%, 66.545105%)" offset="0.398438"/><stop stop-opacity="1" stop-color="rgb(43.035889%, 80.046082%, 66.339111%)" offset="0.402344"/><stop stop-opacity="1" stop-color="rgb(43.408203%, 80.091858%, 66.134644%)" offset="0.40625"/><stop stop-opacity="1" stop-color="rgb(43.780518%, 80.137634%, 65.92865%)" offset="0.410156"/><stop stop-opacity="1" stop-color="rgb(44.152832%, 80.184937%, 65.722656%)" offset="0.414063"/><stop stop-opacity="1" stop-color="rgb(44.525146%, 80.230713%, 65.516663%)" offset="0.417969"/><stop stop-opacity="1" stop-color="rgb(44.897461%, 80.276489%, 65.312195%)" offset="0.421875"/><stop stop-opacity="1" stop-color="rgb(45.269775%, 80.322266%, 65.106201%)" offset="0.425781"/><stop stop-opacity="1" stop-color="rgb(45.64209%, 80.368042%, 64.901733%)" offset="0.429688"/><stop stop-opacity="1" stop-color="rgb(46.012878%, 80.413818%, 64.69574%)" offset="0.433594"/><stop stop-opacity="1" stop-color="rgb(46.385193%, 80.461121%, 64.491272%)" offset="0.4375"/><stop stop-opacity="1" stop-color="rgb(46.757507%, 80.506897%, 64.285278%)" offset="0.441406"/><stop stop-opacity="1" stop-color="rgb(47.129822%, 80.552673%, 64.079285%)" offset="0.445312"/><stop stop-opacity="1" stop-color="rgb(47.502136%, 80.59845%, 63.873291%)" offset="0.449219"/><stop stop-opacity="1" stop-color="rgb(47.874451%, 80.645752%, 63.668823%)" offset="0.453125"/><stop stop-opacity="1" stop-color="rgb(48.246765%, 80.691528%, 63.46283%)" offset="0.457031"/><stop stop-opacity="1" stop-color="rgb(48.61908%, 80.737305%, 63.258362%)" offset="0.460938"/><stop stop-opacity="1" stop-color="rgb(48.991394%, 80.783081%, 63.052368%)" offset="0.464844"/><stop stop-opacity="1" stop-color="rgb(49.363708%, 80.828857%, 62.8479%)" offset="0.46875"/><stop stop-opacity="1" stop-color="rgb(49.736023%, 80.874634%, 62.641907%)" offset="0.472656"/><stop stop-opacity="1" stop-color="rgb(50.108337%, 80.921936%, 62.435913%)" offset="0.476562"/><stop stop-opacity="1" stop-color="rgb(50.479126%, 80.967712%, 62.229919%)" offset="0.480469"/><stop stop-opacity="1" stop-color="rgb(50.85144%, 81.013489%, 62.025452%)" offset="0.484375"/><stop stop-opacity="1" stop-color="rgb(51.223755%, 81.059265%, 61.819458%)" offset="0.488281"/><stop stop-opacity="1" stop-color="rgb(51.596069%, 81.106567%, 61.61499%)" offset="0.492188"/><stop stop-opacity="1" stop-color="rgb(51.968384%, 81.152344%, 61.408997%)" offset="0.496094"/><stop stop-opacity="1" stop-color="rgb(52.340698%, 81.19812%, 61.204529%)" offset="0.5"/><stop stop-opacity="1" stop-color="rgb(52.713013%, 81.243896%, 60.998535%)" offset="0.503906"/><stop stop-opacity="1" stop-color="rgb(53.085327%, 81.289673%, 60.792542%)" offset="0.507812"/><stop stop-opacity="1" stop-color="rgb(53.457642%, 81.335449%, 60.586548%)" offset="0.511719"/><stop stop-opacity="1" stop-color="rgb(53.829956%, 81.382751%, 60.38208%)" offset="0.515625"/><stop stop-opacity="1" stop-color="rgb(54.202271%, 81.428528%, 60.176086%)" offset="0.519531"/><stop stop-opacity="1" stop-color="rgb(54.574585%, 81.474304%, 59.971619%)" offset="0.523438"/><stop stop-opacity="1" stop-color="rgb(54.946899%, 81.520081%, 59.765625%)" offset="0.527344"/><stop stop-opacity="1" stop-color="rgb(55.319214%, 81.567383%, 59.559631%)" offset="0.53125"/><stop stop-opacity="1" stop-color="rgb(55.690002%, 81.613159%, 59.353638%)" offset="0.535156"/><stop stop-opacity="1" stop-color="rgb(56.062317%, 81.658936%, 59.14917%)" offset="0.539062"/><stop stop-opacity="1" stop-color="rgb(56.434631%, 81.704712%, 58.943176%)" offset="0.542969"/><stop stop-opacity="1" stop-color="rgb(56.806946%, 81.750488%, 58.738708%)" offset="0.546875"/><stop stop-opacity="1" stop-color="rgb(57.17926%, 81.796265%, 58.532715%)" offset="0.550781"/><stop stop-opacity="1" stop-color="rgb(57.551575%, 81.843567%, 58.328247%)" offset="0.554688"/><stop stop-opacity="1" stop-color="rgb(57.923889%, 81.889343%, 58.122253%)" offset="0.558594"/><stop stop-opacity="1" stop-color="rgb(58.296204%, 81.93512%, 57.91626%)" offset="0.5625"/><stop stop-opacity="1" stop-color="rgb(58.668518%, 81.980896%, 57.710266%)" offset="0.566406"/><stop stop-opacity="1" stop-color="rgb(59.040833%, 82.028198%, 57.505798%)" offset="0.570312"/><stop stop-opacity="1" stop-color="rgb(59.413147%, 82.073975%, 57.299805%)" offset="0.574219"/><stop stop-opacity="1" stop-color="rgb(59.785461%, 82.119751%, 57.095337%)" offset="0.578125"/><stop stop-opacity="1" stop-color="rgb(60.157776%, 82.165527%, 56.889343%)" offset="0.582031"/><stop stop-opacity="1" stop-color="rgb(60.53009%, 82.21283%, 56.684875%)" offset="0.585938"/><stop stop-opacity="1" stop-color="rgb(60.900879%, 82.258606%, 56.478882%)" offset="0.589844"/><stop stop-opacity="1" stop-color="rgb(61.273193%, 82.304382%, 56.272888%)" offset="0.59375"/><stop stop-opacity="1" stop-color="rgb(61.645508%, 82.350159%, 56.066895%)" offset="0.597656"/><stop stop-opacity="1" stop-color="rgb(62.017822%, 82.395935%, 55.862427%)" offset="0.601562"/><stop stop-opacity="1" stop-color="rgb(62.390137%, 82.441711%, 55.656433%)" offset="0.605469"/><stop stop-opacity="1" stop-color="rgb(62.762451%, 82.489014%, 55.451965%)" offset="0.609375"/><stop stop-opacity="1" stop-color="rgb(63.134766%, 82.53479%, 55.245972%)" offset="0.613281"/><stop stop-opacity="1" stop-color="rgb(63.50708%, 82.580566%, 55.041504%)" offset="0.617188"/><stop stop-opacity="1" stop-color="rgb(63.879395%, 82.626343%, 54.83551%)" offset="0.621094"/><stop stop-opacity="1" stop-color="rgb(64.251709%, 82.673645%, 54.629517%)" offset="0.625"/><stop stop-opacity="1" stop-color="rgb(64.624023%, 82.719421%, 54.423523%)" offset="0.628906"/><stop stop-opacity="1" stop-color="rgb(64.996338%, 82.765198%, 54.219055%)" offset="0.632812"/><stop stop-opacity="1" stop-color="rgb(65.367126%, 82.810974%, 54.013062%)" offset="0.636719"/><stop stop-opacity="1" stop-color="rgb(65.739441%, 82.85675%, 53.808594%)" offset="0.640625"/><stop stop-opacity="1" stop-color="rgb(66.111755%, 82.902527%, 53.6026%)" offset="0.644531"/><stop stop-opacity="1" stop-color="rgb(66.48407%, 82.949829%, 53.396606%)" offset="0.648438"/><stop stop-opacity="1" stop-color="rgb(66.856384%, 82.995605%, 53.190613%)" offset="0.652344"/><stop stop-opacity="1" stop-color="rgb(67.228699%, 83.041382%, 52.986145%)" offset="0.65625"/><stop stop-opacity="1" stop-color="rgb(67.601013%, 83.087158%, 52.780151%)" offset="0.660156"/><stop stop-opacity="1" stop-color="rgb(67.973328%, 83.13446%, 52.575684%)" offset="0.664062"/><stop stop-opacity="1" stop-color="rgb(68.345642%, 83.180237%, 52.36969%)" offset="0.667969"/><stop stop-opacity="1" stop-color="rgb(68.717957%, 83.226013%, 52.165222%)" offset="0.671875"/><stop stop-opacity="1" stop-color="rgb(69.090271%, 83.27179%, 51.959229%)" offset="0.675781"/><stop stop-opacity="1" stop-color="rgb(69.462585%, 83.317566%, 51.753235%)" offset="0.679688"/><stop stop-opacity="1" stop-color="rgb(69.8349%, 83.363342%, 51.547241%)" offset="0.683594"/><stop stop-opacity="1" stop-color="rgb(70.207214%, 83.410645%, 51.342773%)" offset="0.6875"/><stop stop-opacity="1" stop-color="rgb(70.578003%, 83.456421%, 51.13678%)" offset="0.691406"/><stop stop-opacity="1" stop-color="rgb(70.950317%, 83.502197%, 50.932312%)" offset="0.695312"/><stop stop-opacity="1" stop-color="rgb(71.322632%, 83.547974%, 50.726318%)" offset="0.699219"/><stop stop-opacity="1" stop-color="rgb(71.694946%, 83.595276%, 50.521851%)" offset="0.703125"/><stop stop-opacity="1" stop-color="rgb(72.067261%, 83.641052%, 50.315857%)" offset="0.707031"/><stop stop-opacity="1" stop-color="rgb(72.439575%, 83.686829%, 50.109863%)" offset="0.710938"/><stop stop-opacity="1" stop-color="rgb(72.81189%, 83.732605%, 49.90387%)" offset="0.714844"/><stop stop-opacity="1" stop-color="rgb(73.184204%, 83.778381%, 49.699402%)" offset="0.71875"/><stop stop-opacity="1" stop-color="rgb(73.556519%, 83.824158%, 49.493408%)" offset="0.722656"/><stop stop-opacity="1" stop-color="rgb(73.928833%, 83.87146%, 49.28894%)" offset="0.726562"/><stop stop-opacity="1" stop-color="rgb(74.301147%, 83.917236%, 49.082947%)" offset="0.730469"/><stop stop-opacity="1" stop-color="rgb(74.673462%, 83.963013%, 48.878479%)" offset="0.734375"/><stop stop-opacity="1" stop-color="rgb(75.045776%, 84.008789%, 48.672485%)" offset="0.738281"/><stop stop-opacity="1" stop-color="rgb(75.418091%, 84.056091%, 48.466492%)" offset="0.742188"/><stop stop-opacity="1" stop-color="rgb(75.788879%, 84.101868%, 48.260498%)" offset="0.746094"/><stop stop-opacity="1" stop-color="rgb(76.161194%, 84.147644%, 48.05603%)" offset="0.75"/><stop stop-opacity="1" stop-color="rgb(76.533508%, 84.19342%, 47.850037%)" offset="0.753906"/><stop stop-opacity="1" stop-color="rgb(76.905823%, 84.239197%, 47.645569%)" offset="0.757812"/><stop stop-opacity="1" stop-color="rgb(77.278137%, 84.284973%, 47.439575%)" offset="0.761719"/><stop stop-opacity="1" stop-color="rgb(77.650452%, 84.332275%, 47.235107%)" offset="0.765625"/><stop stop-opacity="1" stop-color="rgb(78.022766%, 84.378052%, 47.029114%)" offset="0.769531"/><stop stop-opacity="1" stop-color="rgb(78.395081%, 84.423828%, 46.82312%)" offset="0.773438"/><stop stop-opacity="1" stop-color="rgb(78.767395%, 84.469604%, 46.617126%)" offset="0.777344"/><stop stop-opacity="1" stop-color="rgb(79.139709%, 84.516907%, 46.412659%)" offset="0.78125"/><stop stop-opacity="1" stop-color="rgb(79.512024%, 84.562683%, 46.206665%)" offset="0.785156"/><stop stop-opacity="1" stop-color="rgb(79.884338%, 84.608459%, 46.002197%)" offset="0.789062"/><stop stop-opacity="1" stop-color="rgb(80.256653%, 84.654236%, 45.796204%)" offset="0.792969"/><stop stop-opacity="1" stop-color="rgb(80.628967%, 84.700012%, 45.59021%)" offset="0.796875"/><stop stop-opacity="1" stop-color="rgb(80.999756%, 84.745789%, 45.384216%)" offset="0.800781"/><stop stop-opacity="1" stop-color="rgb(81.37207%, 84.793091%, 45.179749%)" offset="0.804688"/><stop stop-opacity="1" stop-color="rgb(81.744385%, 84.838867%, 44.973755%)" offset="0.808594"/><stop stop-opacity="1" stop-color="rgb(82.116699%, 84.884644%, 44.769287%)" offset="0.8125"/><stop stop-opacity="1" stop-color="rgb(82.489014%, 84.93042%, 44.563293%)" offset="0.816406"/><stop stop-opacity="1" stop-color="rgb(82.861328%, 84.977722%, 44.358826%)" offset="0.820312"/><stop stop-opacity="1" stop-color="rgb(83.233643%, 85.023499%, 44.152832%)" offset="0.824219"/><stop stop-opacity="1" stop-color="rgb(83.605957%, 85.069275%, 43.946838%)" offset="0.828125"/><stop stop-opacity="1" stop-color="rgb(83.978271%, 85.115051%, 43.740845%)" offset="0.832031"/><stop stop-opacity="1" stop-color="rgb(84.350586%, 85.160828%, 43.536377%)" offset="0.835938"/><stop stop-opacity="1" stop-color="rgb(84.7229%, 85.206604%, 43.330383%)" offset="0.839844"/><stop stop-opacity="1" stop-color="rgb(85.095215%, 85.253906%, 43.125916%)" offset="0.84375"/><stop stop-opacity="1" stop-color="rgb(85.466003%, 85.299683%, 42.919922%)" offset="0.847656"/><stop stop-opacity="1" stop-color="rgb(85.838318%, 85.345459%, 42.715454%)" offset="0.851562"/><stop stop-opacity="1" stop-color="rgb(86.210632%, 85.391235%, 42.50946%)" offset="0.855469"/><stop stop-opacity="1" stop-color="rgb(86.582947%, 85.438538%, 42.303467%)" offset="0.859375"/><stop stop-opacity="1" stop-color="rgb(86.955261%, 85.484314%, 42.097473%)" offset="0.863281"/><stop stop-opacity="1" stop-color="rgb(87.327576%, 85.53009%, 41.893005%)" offset="0.867188"/><stop stop-opacity="1" stop-color="rgb(87.69989%, 85.575867%, 41.687012%)" offset="0.871094"/><stop stop-opacity="1" stop-color="rgb(88.072205%, 85.623169%, 41.482544%)" offset="0.875"/><stop stop-opacity="1" stop-color="rgb(88.444519%, 85.668945%, 41.27655%)" offset="0.878906"/><stop stop-opacity="1" stop-color="rgb(88.816833%, 85.714722%, 41.072083%)" offset="0.882812"/><stop stop-opacity="1" stop-color="rgb(89.189148%, 85.760498%, 40.866089%)" offset="0.886719"/><stop stop-opacity="1" stop-color="rgb(89.561462%, 85.806274%, 40.660095%)" offset="0.890625"/><stop stop-opacity="1" stop-color="rgb(89.933777%, 85.852051%, 40.454102%)" offset="0.894531"/><stop stop-opacity="1" stop-color="rgb(90.306091%, 85.899353%, 40.249634%)" offset="0.898438"/><stop stop-opacity="1" stop-color="rgb(90.67688%, 85.945129%, 40.04364%)" offset="0.902344"/><stop stop-opacity="1" stop-color="rgb(91.049194%, 85.990906%, 39.839172%)" offset="0.90625"/><stop stop-opacity="1" stop-color="rgb(91.421509%, 86.036682%, 39.633179%)" offset="0.910156"/><stop stop-opacity="1" stop-color="rgb(91.793823%, 86.083984%, 39.427185%)" offset="0.914062"/><stop stop-opacity="1" stop-color="rgb(92.166138%, 86.129761%, 39.221191%)" offset="0.917969"/><stop stop-opacity="1" stop-color="rgb(92.538452%, 86.175537%, 39.016724%)" offset="0.921875"/><stop stop-opacity="1" stop-color="rgb(92.910767%, 86.221313%, 38.81073%)" offset="0.925781"/><stop stop-opacity="1" stop-color="rgb(93.283081%, 86.26709%, 38.606262%)" offset="0.929688"/><stop stop-opacity="1" stop-color="rgb(93.655396%, 86.312866%, 38.400269%)" offset="0.933594"/><stop stop-opacity="1" stop-color="rgb(94.02771%, 86.360168%, 38.195801%)" offset="0.9375"/><stop stop-opacity="1" stop-color="rgb(94.400024%, 86.405945%, 37.989807%)" offset="0.941406"/><stop stop-opacity="1" stop-color="rgb(94.772339%, 86.451721%, 37.783813%)" offset="0.945312"/><stop stop-opacity="1" stop-color="rgb(95.144653%, 86.497498%, 37.57782%)" offset="0.949219"/><stop stop-opacity="1" stop-color="rgb(95.516968%, 86.5448%, 37.373352%)" offset="0.953125"/><stop stop-opacity="1" stop-color="rgb(95.887756%, 86.590576%, 37.167358%)" offset="0.957031"/><stop stop-opacity="1" stop-color="rgb(96.260071%, 86.636353%, 36.962891%)" offset="0.960938"/><stop stop-opacity="1" stop-color="rgb(96.632385%, 86.682129%, 36.756897%)" offset="0.964844"/><stop stop-opacity="1" stop-color="rgb(97.0047%, 86.727905%, 36.552429%)" offset="0.96875"/><stop stop-opacity="1" stop-color="rgb(97.377014%, 86.773682%, 36.346436%)" offset="0.972656"/><stop stop-opacity="1" stop-color="rgb(97.749329%, 86.820984%, 36.140442%)" offset="0.976562"/><stop stop-opacity="1" stop-color="rgb(98.121643%, 86.86676%, 35.934448%)" offset="0.980469"/><stop stop-opacity="1" stop-color="rgb(98.493958%, 86.912537%, 35.72998%)" offset="0.984375"/><stop stop-opacity="1" stop-color="rgb(98.866272%, 86.958313%, 35.523987%)" offset="0.988281"/><stop stop-opacity="1" stop-color="rgb(99.238586%, 87.005615%, 35.319519%)" offset="0.992188"/><stop stop-opacity="1" stop-color="rgb(99.610901%, 87.051392%, 35.113525%)" offset="0.996094"/><stop stop-opacity="1" stop-color="rgb(99.983215%, 87.097168%, 34.909058%)" offset="1"/></linearGradient></defs><g clip-path="url(#808884d693)"><g clip-path="url(#ae6e727a5f)"><path fill="#000000" d="M 70.109375 164.625 L 115.855469 164.625 L 115.855469 210.375 L 70.109375 210.375 Z M 70.109375 164.625 " fill-opacity="1" fill-rule="nonzero"/></g></g><g clip-path="url(#bf2a7106d1)"><g clip-path="url(#7576d46ceb)"><path fill="#000000" d="M 76.101562 177.320312 L 109.914062 177.320312 L 109.914062 206.863281 L 76.101562 206.863281 Z M 76.101562 177.320312 " fill-opacity="1" fill-rule="nonzero"/></g></g><g clip-path="url(#bc4ed2d911)"><g clip-path="url(#0c44de435d)"><path stroke-linecap="butt" transform="matrix(0.75, 0, 0, 0.75, 76.108329, 177.320715)" fill="none" stroke-linejoin="miter" d="M 22.501396 39.374466 L 45.001397 -0.000536341 L 0.00139453 -0.000536341 Z M 22.501396 39.374466 " stroke="url(#20a1ef5d68)" stroke-width="6" stroke-miterlimit="4"/></g></g><g fill="#ffffff" fill-opacity="1"><g transform="translate(87.995382, 192.561001)"><g><path d="M 7.90625 -10.265625 L 9.0625 -10.265625 C 9.070312 -10.265625 9.09375 -10.238281 9.125 -10.1875 L 9.125 -0.015625 L 0.859375 -0.015625 L 0.859375 -5.140625 L 0.875 -10.25 L 2.046875 -10.265625 L 3.203125 -10.265625 L 3.203125 -1.640625 L 3.296875 -1.640625 C 3.316406 -1.640625 3.394531 -1.632812 3.53125 -1.625 C 3.664062 -1.625 3.835938 -1.625 4.046875 -1.625 C 4.253906 -1.625 4.476562 -1.625 4.71875 -1.625 C 4.957031 -1.625 5.1875 -1.625 5.40625 -1.625 L 6.75 -1.625 L 6.765625 -5.953125 L 6.765625 -10.25 Z M 7.90625 -10.265625 "/></g></g></g><g fill="#000000" fill-opacity="1"><g transform="translate(115.86891, 196.124987)"><g><path d="M 8.375 -17.84375 C 8.53125 -17.875 9.160156 -17.890625 10.265625 -17.890625 C 11.367188 -17.890625 11.929688 -17.875 11.953125 -17.84375 C 11.953125 -17.84375 11.953125 -17.835938 11.953125 -17.828125 C 11.953125 -17.566406 11.394531 -16.09375 10.28125 -13.40625 C 9.164062 -10.71875 7.972656 -7.9375 6.703125 -5.0625 C 5.429688 -2.195312 4.675781 -0.601562 4.4375 -0.28125 L 4.265625 0 L 2.703125 -0.03125 C 1.648438 -0.0390625 1.070312 -0.0664062 0.96875 -0.109375 C 0.851562 -0.140625 0.796875 -0.210938 0.796875 -0.328125 C 0.796875 -0.367188 0.8125 -0.457031 0.84375 -0.59375 C 0.875 -0.726562 1.085938 -1.296875 1.484375 -2.296875 C 1.492188 -2.328125 1.816406 -3.109375 2.453125 -4.640625 C 3.335938 -6.828125 4.425781 -9.390625 5.71875 -12.328125 C 6.125 -13.285156 6.515625 -14.195312 6.890625 -15.0625 C 7.203125 -15.832031 7.441406 -16.378906 7.609375 -16.703125 C 7.773438 -17.035156 7.921875 -17.265625 8.046875 -17.390625 C 8.078125 -17.421875 8.09375 -17.445312 8.09375 -17.46875 C 8.09375 -17.476562 8.09375 -17.484375 8.09375 -17.484375 C 8.09375 -17.484375 8.082031 -17.476562 8.0625 -17.46875 C 8.03125 -17.445312 8.003906 -17.4375 7.984375 -17.4375 C 7.953125 -17.4375 7.9375 -17.453125 7.9375 -17.484375 C 7.9375 -17.535156 7.976562 -17.597656 8.0625 -17.671875 C 8.15625 -17.753906 8.257812 -17.8125 8.375 -17.84375 Z M 8.375 -17.84375 "/></g></g></g><g fill="#000000" fill-opacity="1"><g transform="translate(128.630593, 196.124987)"><g><path d="M 1.6875 -11.84375 L 1.65625 -17.828125 L 5.875 -17.828125 L 5.796875 -12.515625 L 5.796875 -12.4375 C 5.796875 -12.394531 5.796875 -12.359375 5.796875 -12.328125 L 5.796875 -12.203125 C 5.796875 -12.179688 5.796875 -12.15625 5.796875 -12.125 L 5.796875 -11.953125 C 5.796875 -11.867188 5.796875 -11.789062 5.796875 -11.71875 L 5.796875 -11.640625 C 5.796875 -11.609375 5.796875 -11.582031 5.796875 -11.5625 L 5.796875 -11.484375 C 5.796875 -11.378906 5.796875 -11.28125 5.796875 -11.1875 L 5.796875 -10.625 C 5.796875 -10.582031 5.796875 -10.554688 5.796875 -10.546875 L 5.796875 -10.34375 C 5.796875 -10.320312 5.796875 -10.304688 5.796875 -10.296875 L 5.796875 -10.21875 C 5.796875 -10.195312 5.796875 -10.1875 5.796875 -10.1875 L 5.796875 -10.0625 C 5.796875 -10.007812 5.796875 -9.96875 5.796875 -9.9375 L 5.796875 -9.875 C 5.796875 -9.863281 5.796875 -9.847656 5.796875 -9.828125 L 5.796875 -9.78125 C 5.796875 -9.707031 5.796875 -9.640625 5.796875 -9.578125 L 5.796875 -9.09375 C 5.796875 -9.070312 5.796875 -9.046875 5.796875 -9.015625 L 5.796875 -8.859375 C 5.796875 -8.316406 5.804688 -7.929688 5.828125 -7.703125 C 5.859375 -7.472656 5.875 -7.234375 5.875 -6.984375 C 5.875 -6.734375 5.90625 -6.53125 5.96875 -6.375 C 6.039062 -6.226562 6.085938 -6.09375 6.109375 -5.96875 C 6.140625 -5.851562 6.207031 -5.703125 6.3125 -5.515625 C 6.476562 -5.171875 6.703125 -4.851562 6.984375 -4.5625 C 7.265625 -4.28125 7.566406 -4.070312 7.890625 -3.9375 C 8.273438 -3.78125 8.664062 -3.703125 9.0625 -3.703125 C 9.363281 -3.703125 9.773438 -3.78125 10.296875 -3.9375 C 10.816406 -4.101562 11.300781 -4.46875 11.75 -5.03125 C 11.75 -5.050781 11.753906 -5.078125 11.765625 -5.109375 C 12.054688 -5.566406 12.226562 -6.054688 12.28125 -6.578125 C 12.34375 -7.097656 12.382812 -8.734375 12.40625 -11.484375 C 12.425781 -11.753906 12.4375 -11.976562 12.4375 -12.15625 L 12.484375 -17.828125 L 16.5 -17.828125 L 16.5 -12.03125 C 16.5 -11.195312 16.5 -10.578125 16.5 -10.171875 C 16.507812 -9.773438 16.515625 -9.472656 16.515625 -9.265625 C 16.515625 -8.890625 16.507812 -8.546875 16.5 -8.234375 C 16.5 -7.929688 16.5 -7.679688 16.5 -7.484375 C 16.5 -7.273438 16.5 -7.109375 16.5 -6.984375 C 16.5 -6.867188 16.5 -6.78125 16.5 -6.71875 C 16.5 -6.476562 16.472656 -6.222656 16.421875 -5.953125 C 16.367188 -5.691406 16.332031 -5.476562 16.3125 -5.3125 C 16.289062 -5.144531 16.25 -4.957031 16.1875 -4.75 C 16.132812 -4.539062 16.070312 -4.375 16 -4.25 C 15.9375 -4.125 15.851562 -3.941406 15.75 -3.703125 C 15.613281 -3.378906 15.472656 -3.097656 15.328125 -2.859375 C 15.179688 -2.617188 14.972656 -2.335938 14.703125 -2.015625 C 14.460938 -1.765625 14.210938 -1.535156 13.953125 -1.328125 C 13.691406 -1.117188 13.492188 -0.972656 13.359375 -0.890625 C 12.828125 -0.585938 12.128906 -0.320312 11.265625 -0.09375 C 10.410156 0.125 9.644531 0.234375 8.96875 0.234375 C 8.59375 0.234375 8.101562 0.175781 7.5 0.0625 C 6.894531 -0.0507812 6.4375 -0.15625 6.125 -0.25 C 5.613281 -0.4375 5.164062 -0.65625 4.78125 -0.90625 C 4.40625 -1.15625 4.03125 -1.484375 3.65625 -1.890625 C 3.207031 -2.367188 2.851562 -2.84375 2.59375 -3.3125 C 2.332031 -3.78125 2.109375 -4.363281 1.921875 -5.0625 C 1.816406 -5.445312 1.753906 -5.945312 1.734375 -6.5625 C 1.710938 -7.175781 1.695312 -8.9375 1.6875 -11.84375 Z M 1.6875 -11.84375 "/></g></g></g><g fill="#000000" fill-opacity="1"><g transform="translate(146.803227, 196.124987)"><g><path d="M 2.6875 -17.75 C 2.914062 -17.757812 3.296875 -17.765625 3.828125 -17.765625 C 4.097656 -17.765625 4.40625 -17.765625 4.75 -17.765625 C 5.53125 -17.765625 6.019531 -17.753906 6.21875 -17.734375 C 6.414062 -17.722656 6.585938 -17.660156 6.734375 -17.546875 C 6.941406 -17.421875 7.203125 -17.148438 7.515625 -16.734375 C 7.828125 -16.316406 8.273438 -15.679688 8.859375 -14.828125 C 9.691406 -13.609375 10.171875 -12.882812 10.296875 -12.65625 C 12.046875 -9.59375 13.015625 -7.882812 13.203125 -7.53125 C 13.210938 -7.5 13.226562 -7.484375 13.25 -7.484375 C 13.269531 -7.484375 13.285156 -7.523438 13.296875 -7.609375 C 13.335938 -7.859375 13.359375 -9.492188 13.359375 -12.515625 L 13.375 -17.203125 L 13.578125 -17.46875 C 13.679688 -17.601562 13.804688 -17.679688 13.953125 -17.703125 C 14.097656 -17.734375 14.503906 -17.765625 15.171875 -17.796875 C 15.472656 -17.816406 15.734375 -17.828125 15.953125 -17.828125 C 16.410156 -17.828125 16.71875 -17.800781 16.875 -17.75 L 17.203125 -17.609375 L 17.265625 -15.578125 C 17.304688 -14.210938 17.328125 -12.175781 17.328125 -9.46875 C 17.328125 -8.789062 17.328125 -8.066406 17.328125 -7.296875 C 17.316406 -2.753906 17.273438 -0.40625 17.203125 -0.25 C 17.148438 -0.132812 17.078125 -0.0664062 16.984375 -0.046875 C 16.847656 -0.0351562 16.351562 -0.0078125 15.5 0.03125 C 15.226562 0.0390625 15.003906 0.046875 14.828125 0.046875 C 14.742188 0.046875 14.640625 0.0390625 14.515625 0.03125 C 14.390625 0.03125 14.265625 -0.0195312 14.140625 -0.125 C 13.753906 -0.4375 12.84375 -1.722656 11.40625 -3.984375 C 9.976562 -6.242188 8.632812 -8.328125 7.375 -10.234375 C 6.40625 -11.734375 5.910156 -12.492188 5.890625 -12.515625 C 5.890625 -12.492188 5.890625 -12.484375 5.890625 -12.484375 C 5.890625 -12.460938 5.890625 -12.453125 5.890625 -12.453125 L 5.890625 -12.4375 C 5.890625 -12.414062 5.890625 -12.40625 5.890625 -12.40625 L 5.890625 -12.234375 C 5.890625 -12.234375 5.890625 -12.222656 5.890625 -12.203125 L 5.890625 -12.125 C 5.890625 -12.113281 5.890625 -12.097656 5.890625 -12.078125 L 5.890625 -12.046875 C 5.890625 -12.035156 5.890625 -12.03125 5.890625 -12.03125 L 5.890625 -12 C 5.890625 -11.96875 5.890625 -11.929688 5.890625 -11.890625 L 5.890625 -11.875 C 5.890625 -11.851562 5.890625 -11.835938 5.890625 -11.828125 L 5.890625 -11.71875 C 5.890625 -11.695312 5.890625 -11.671875 5.890625 -11.640625 L 5.890625 -11.265625 C 5.890625 -11.242188 5.890625 -11.222656 5.890625 -11.203125 L 5.890625 -11.078125 C 5.890625 -10.597656 5.898438 -10.082031 5.921875 -9.53125 C 5.941406 -8.976562 5.953125 -8.335938 5.953125 -7.609375 C 5.960938 -5.347656 5.96875 -3.632812 5.96875 -2.46875 C 5.96875 -1.300781 5.960938 -0.679688 5.953125 -0.609375 C 5.898438 -0.421875 5.765625 -0.273438 5.546875 -0.171875 C 5.390625 -0.078125 5.210938 -0.0195312 5.015625 0 C 4.816406 0.0195312 4.394531 0.03125 3.75 0.03125 C 3.050781 0.03125 2.617188 0.0195312 2.453125 0 C 2.296875 -0.0195312 2.160156 -0.078125 2.046875 -0.171875 L 1.78125 -0.390625 L 1.78125 -9.78125 C 1.78125 -14.832031 1.804688 -17.382812 1.859375 -17.4375 C 1.878906 -17.488281 1.914062 -17.515625 1.96875 -17.515625 C 1.976562 -17.515625 2.003906 -17.503906 2.046875 -17.484375 C 2.054688 -17.484375 2.070312 -17.484375 2.09375 -17.484375 C 2.144531 -17.484375 2.1875 -17.519531 2.21875 -17.59375 C 2.25 -17.675781 2.40625 -17.726562 2.6875 -17.75 Z M 2.6875 -17.75 "/></g></g></g><g fill="#000000" fill-opacity="1"><g transform="translate(165.945746, 196.124987)"><g><path d="M 1.8125 -17.796875 C 1.8125 -17.816406 1.847656 -17.832031 1.921875 -17.84375 C 2.109375 -17.875 2.710938 -17.890625 3.734375 -17.890625 L 5.71875 -17.890625 L 5.6875 -9.65625 L 5.6875 -0.03125 L 4.0625 0 C 3.65625 0.0195312 3.304688 0.03125 3.015625 0.03125 C 2.585938 0.03125 2.296875 0.0078125 2.140625 -0.03125 L 1.8125 -0.109375 L 1.859375 -9.546875 C 1.878906 -11.347656 1.890625 -12.851562 1.890625 -14.0625 C 1.890625 -16.5 1.863281 -17.742188 1.8125 -17.796875 Z M 1.8125 -17.796875 "/></g></g></g><g fill="#000000" fill-opacity="1"><g transform="translate(173.449614, 196.124987)"><g><path d="M 8.140625 -18.03125 C 8.378906 -18.0625 8.75 -18.078125 9.25 -18.078125 C 9.414062 -18.078125 9.742188 -18.070312 10.234375 -18.0625 C 10.734375 -18.050781 11.132812 -18.015625 11.4375 -17.953125 C 13 -17.609375 14.300781 -16.789062 15.34375 -15.5 C 15.71875 -15.039062 16.019531 -14.59375 16.25 -14.15625 C 16.476562 -13.71875 16.695312 -13.195312 16.90625 -12.59375 C 17.125 -11.875 17.257812 -11.25 17.3125 -10.71875 C 17.375 -10.195312 17.40625 -9.613281 17.40625 -8.96875 C 17.40625 -8.8125 17.40625 -8.644531 17.40625 -8.46875 C 17.351562 -7.363281 17.191406 -6.378906 16.921875 -5.515625 C 16.648438 -4.648438 16.242188 -3.832031 15.703125 -3.0625 C 15.484375 -2.71875 15.117188 -2.335938 14.609375 -1.921875 C 14.097656 -1.503906 13.660156 -1.1875 13.296875 -0.96875 L 12.796875 -0.65625 L 13.015625 -0.4375 C 13.140625 -0.300781 13.363281 0.0390625 13.6875 0.59375 C 14.007812 1.15625 14.265625 1.644531 14.453125 2.0625 C 14.566406 2.332031 14.625 2.519531 14.625 2.625 C 14.625 2.675781 14.617188 2.710938 14.609375 2.734375 C 14.515625 2.835938 14.25 2.929688 13.8125 3.015625 C 13.375 3.097656 12.863281 3.15625 12.28125 3.1875 C 12.195312 3.1875 12.078125 3.195312 11.921875 3.21875 C 11.765625 3.238281 11.648438 3.25 11.578125 3.25 C 11.515625 3.25 11.4375 3.234375 11.34375 3.203125 C 11.25 3.179688 11.1875 3.160156 11.15625 3.140625 C 11.125 3.117188 11.0625 3.050781 10.96875 2.9375 C 10.882812 2.832031 10.816406 2.738281 10.765625 2.65625 C 10.722656 2.582031 10.632812 2.429688 10.5 2.203125 C 10.394531 2.023438 10.304688 1.882812 10.234375 1.78125 C 9.878906 1.175781 9.570312 0.710938 9.3125 0.390625 L 9.015625 0 L 8.125 -0.046875 C 7.332031 -0.117188 6.578125 -0.304688 5.859375 -0.609375 C 5.148438 -0.921875 4.519531 -1.332031 3.96875 -1.84375 C 3.414062 -2.363281 2.925781 -2.972656 2.5 -3.671875 C 2.070312 -4.367188 1.75 -5.132812 1.53125 -5.96875 C 1.320312 -6.800781 1.207031 -7.492188 1.1875 -8.046875 C 1.164062 -8.609375 1.15625 -8.972656 1.15625 -9.140625 C 1.15625 -9.921875 1.238281 -10.722656 1.40625 -11.546875 C 1.5625 -12.328125 1.78125 -13.019531 2.0625 -13.625 C 2.351562 -14.238281 2.726562 -14.828125 3.1875 -15.390625 C 3.3125 -15.523438 3.421875 -15.632812 3.515625 -15.71875 C 3.609375 -15.8125 3.671875 -15.859375 3.703125 -15.859375 C 3.722656 -15.859375 3.734375 -15.859375 3.734375 -15.859375 C 3.742188 -15.835938 3.757812 -15.828125 3.78125 -15.828125 C 3.78125 -15.828125 3.78125 -15.835938 3.78125 -15.859375 C 3.78125 -15.859375 3.769531 -15.863281 3.75 -15.875 C 3.738281 -15.894531 3.734375 -15.921875 3.734375 -15.953125 C 3.734375 -16.003906 3.773438 -16.066406 3.859375 -16.140625 C 3.941406 -16.253906 4.015625 -16.3125 4.078125 -16.3125 C 4.097656 -16.3125 4.117188 -16.300781 4.140625 -16.28125 C 4.140625 -16.28125 4.140625 -16.273438 4.140625 -16.265625 C 4.140625 -16.242188 4.128906 -16.21875 4.109375 -16.1875 C 4.109375 -16.164062 4.109375 -16.15625 4.109375 -16.15625 C 4.085938 -16.15625 4.078125 -16.15625 4.078125 -16.15625 C 4.078125 -16.15625 4.078125 -16.148438 4.078125 -16.140625 C 4.078125 -16.140625 4.097656 -16.144531 4.140625 -16.15625 C 4.140625 -16.15625 4.144531 -16.15625 4.15625 -16.15625 C 4.207031 -16.175781 4.234375 -16.203125 4.234375 -16.234375 C 4.234375 -16.253906 4.226562 -16.269531 4.21875 -16.28125 C 4.21875 -16.300781 4.21875 -16.3125 4.21875 -16.3125 C 4.21875 -16.382812 4.332031 -16.507812 4.5625 -16.6875 C 4.800781 -16.863281 5.054688 -17.019531 5.328125 -17.15625 C 5.609375 -17.289062 5.789062 -17.359375 5.875 -17.359375 C 5.882812 -17.359375 5.898438 -17.359375 5.921875 -17.359375 C 5.953125 -17.359375 5.976562 -17.359375 6 -17.359375 C 6.019531 -17.359375 6.03125 -17.359375 6.03125 -17.359375 C 6.03125 -17.378906 6.019531 -17.390625 6 -17.390625 C 6 -17.398438 6.03125 -17.425781 6.09375 -17.46875 C 6.164062 -17.519531 6.269531 -17.566406 6.40625 -17.609375 C 6.539062 -17.648438 6.695312 -17.695312 6.875 -17.75 C 7.0625 -17.8125 7.265625 -17.863281 7.484375 -17.90625 C 7.703125 -17.945312 7.921875 -17.988281 8.140625 -18.03125 Z M 10.671875 -14.046875 C 10.296875 -14.210938 9.878906 -14.296875 9.421875 -14.296875 C 9.367188 -14.296875 9.203125 -14.289062 8.921875 -14.28125 C 8.640625 -14.269531 8.285156 -14.148438 7.859375 -13.921875 C 6.960938 -13.421875 6.304688 -12.578125 5.890625 -11.390625 C 5.773438 -11.066406 5.703125 -10.785156 5.671875 -10.546875 C 5.648438 -10.304688 5.640625 -9.851562 5.640625 -9.1875 C 5.640625 -8.15625 5.738281 -7.3125 5.9375 -6.65625 C 6.144531 -6 6.503906 -5.394531 7.015625 -4.84375 C 7.410156 -4.457031 7.757812 -4.191406 8.0625 -4.046875 C 8.375 -3.898438 8.789062 -3.828125 9.3125 -3.828125 C 9.84375 -3.828125 10.265625 -3.898438 10.578125 -4.046875 C 10.898438 -4.191406 11.265625 -4.46875 11.671875 -4.875 C 11.867188 -5.09375 12.023438 -5.289062 12.140625 -5.46875 C 12.253906 -5.65625 12.367188 -5.910156 12.484375 -6.234375 C 12.859375 -7.253906 13.046875 -8.289062 13.046875 -9.34375 C 13.046875 -10.394531 12.859375 -11.332031 12.484375 -12.15625 C 12.316406 -12.507812 12.046875 -12.875 11.671875 -13.25 C 11.304688 -13.625 10.972656 -13.890625 10.671875 -14.046875 Z M 10.671875 -14.046875 "/></g></g></g><g fill="#000000" fill-opacity="1"><g transform="translate(192.030617, 196.124987)"><g><path d="M 1.6875 -11.84375 L 1.65625 -17.828125 L 5.875 -17.828125 L 5.796875 -12.515625 L 5.796875 -12.4375 C 5.796875 -12.394531 5.796875 -12.359375 5.796875 -12.328125 L 5.796875 -12.203125 C 5.796875 -12.179688 5.796875 -12.15625 5.796875 -12.125 L 5.796875 -11.953125 C 5.796875 -11.867188 5.796875 -11.789062 5.796875 -11.71875 L 5.796875 -11.640625 C 5.796875 -11.609375 5.796875 -11.582031 5.796875 -11.5625 L 5.796875 -11.484375 C 5.796875 -11.378906 5.796875 -11.28125 5.796875 -11.1875 L 5.796875 -10.625 C 5.796875 -10.582031 5.796875 -10.554688 5.796875 -10.546875 L 5.796875 -10.34375 C 5.796875 -10.320312 5.796875 -10.304688 5.796875 -10.296875 L 5.796875 -10.21875 C 5.796875 -10.195312 5.796875 -10.1875 5.796875 -10.1875 L 5.796875 -10.0625 C 5.796875 -10.007812 5.796875 -9.96875 5.796875 -9.9375 L 5.796875 -9.875 C 5.796875 -9.863281 5.796875 -9.847656 5.796875 -9.828125 L 5.796875 -9.78125 C 5.796875 -9.707031 5.796875 -9.640625 5.796875 -9.578125 L 5.796875 -9.09375 C 5.796875 -9.070312 5.796875 -9.046875 5.796875 -9.015625 L 5.796875 -8.859375 C 5.796875 -8.316406 5.804688 -7.929688 5.828125 -7.703125 C 5.859375 -7.472656 5.875 -7.234375 5.875 -6.984375 C 5.875 -6.734375 5.90625 -6.53125 5.96875 -6.375 C 6.039062 -6.226562 6.085938 -6.09375 6.109375 -5.96875 C 6.140625 -5.851562 6.207031 -5.703125 6.3125 -5.515625 C 6.476562 -5.171875 6.703125 -4.851562 6.984375 -4.5625 C 7.265625 -4.28125 7.566406 -4.070312 7.890625 -3.9375 C 8.273438 -3.78125 8.664062 -3.703125 9.0625 -3.703125 C 9.363281 -3.703125 9.773438 -3.78125 10.296875 -3.9375 C 10.816406 -4.101562 11.300781 -4.46875 11.75 -5.03125 C 11.75 -5.050781 11.753906 -5.078125 11.765625 -5.109375 C 12.054688 -5.566406 12.226562 -6.054688 12.28125 -6.578125 C 12.34375 -7.097656 12.382812 -8.734375 12.40625 -11.484375 C 12.425781 -11.753906 12.4375 -11.976562 12.4375 -12.15625 L 12.484375 -17.828125 L 16.5 -17.828125 L 16.5 -12.03125 C 16.5 -11.195312 16.5 -10.578125 16.5 -10.171875 C 16.507812 -9.773438 16.515625 -9.472656 16.515625 -9.265625 C 16.515625 -8.890625 16.507812 -8.546875 16.5 -8.234375 C 16.5 -7.929688 16.5 -7.679688 16.5 -7.484375 C 16.5 -7.273438 16.5 -7.109375 16.5 -6.984375 C 16.5 -6.867188 16.5 -6.78125 16.5 -6.71875 C 16.5 -6.476562 16.472656 -6.222656 16.421875 -5.953125 C 16.367188 -5.691406 16.332031 -5.476562 16.3125 -5.3125 C 16.289062 -5.144531 16.25 -4.957031 16.1875 -4.75 C 16.132812 -4.539062 16.070312 -4.375 16 -4.25 C 15.9375 -4.125 15.851562 -3.941406 15.75 -3.703125 C 15.613281 -3.378906 15.472656 -3.097656 15.328125 -2.859375 C 15.179688 -2.617188 14.972656 -2.335938 14.703125 -2.015625 C 14.460938 -1.765625 14.210938 -1.535156 13.953125 -1.328125 C 13.691406 -1.117188 13.492188 -0.972656 13.359375 -0.890625 C 12.828125 -0.585938 12.128906 -0.320312 11.265625 -0.09375 C 10.410156 0.125 9.644531 0.234375 8.96875 0.234375 C 8.59375 0.234375 8.101562 0.175781 7.5 0.0625 C 6.894531 -0.0507812 6.4375 -0.15625 6.125 -0.25 C 5.613281 -0.4375 5.164062 -0.65625 4.78125 -0.90625 C 4.40625 -1.15625 4.03125 -1.484375 3.65625 -1.890625 C 3.207031 -2.367188 2.851562 -2.84375 2.59375 -3.3125 C 2.332031 -3.78125 2.109375 -4.363281 1.921875 -5.0625 C 1.816406 -5.445312 1.753906 -5.945312 1.734375 -6.5625 C 1.710938 -7.175781 1.695312 -8.9375 1.6875 -11.84375 Z M 1.6875 -11.84375 "/></g></g></g><g fill="#000000" fill-opacity="1"><g transform="translate(210.20325, 196.124987)"><g><path d="M 2.203125 -17.609375 C 2.554688 -17.648438 4.367188 -17.671875 7.640625 -17.671875 C 10.921875 -17.671875 12.6875 -17.648438 12.9375 -17.609375 L 13.453125 -17.5625 L 13.40625 -14.53125 L 9.171875 -14.53125 L 5.671875 -14.546875 L 5.671875 -3.375 L 13.609375 -3.375 L 13.609375 -0.15625 L 1.78125 -0.15625 L 1.78125 -17.59375 Z M 8.25 -10.953125 L 8.53125 -10.953125 C 8.632812 -10.953125 8.726562 -10.953125 8.8125 -10.953125 L 8.984375 -10.953125 C 9.066406 -10.953125 9.144531 -10.953125 9.21875 -10.953125 L 9.46875 -10.953125 C 9.519531 -10.953125 9.570312 -10.953125 9.625 -10.953125 L 9.78125 -10.953125 C 9.832031 -10.953125 9.875 -10.953125 9.90625 -10.953125 L 10.3125 -10.953125 C 10.34375 -10.953125 10.382812 -10.953125 10.4375 -10.953125 L 10.546875 -10.953125 C 10.578125 -10.953125 10.609375 -10.953125 10.640625 -10.953125 L 11.546875 -10.953125 C 11.554688 -10.953125 11.570312 -10.953125 11.59375 -10.953125 L 12.8125 -10.953125 L 12.84375 -10.5 C 12.84375 -10.375 12.84375 -10.234375 12.84375 -10.078125 C 12.84375 -9.753906 12.832031 -9.347656 12.8125 -8.859375 L 12.734375 -7.6875 L 9.59375 -7.6875 C 7.78125 -7.6875 6.757812 -7.710938 6.53125 -7.765625 L 6.25 -7.8125 L 6.25 -10.921875 Z M 8.25 -10.953125 "/></g></g></g><g fill="#000000" fill-opacity="1"><g transform="translate(224.904707, 196.124987)"><g><path d="M 8.5 -18.03125 C 8.632812 -18.0625 8.882812 -18.078125 9.25 -18.078125 C 9.53125 -18.078125 10.019531 -18.054688 10.71875 -18.015625 C 11.414062 -17.984375 11.898438 -17.925781 12.171875 -17.84375 C 12.972656 -17.625 13.742188 -17.234375 14.484375 -16.671875 C 15.222656 -16.109375 15.820312 -15.460938 16.28125 -14.734375 C 16.757812 -13.984375 17.109375 -13.21875 17.328125 -12.4375 C 17.554688 -11.65625 17.695312 -10.707031 17.75 -9.59375 C 17.757812 -9.375 17.765625 -9.144531 17.765625 -8.90625 C 17.765625 -6.78125 17.25 -4.9375 16.21875 -3.375 C 15.601562 -2.4375 14.804688 -1.671875 13.828125 -1.078125 C 12.847656 -0.492188 11.988281 -0.144531 11.25 -0.03125 C 10.507812 0.0703125 9.929688 0.125 9.515625 0.125 C 8.835938 0.125 8.039062 0.0195312 7.125 -0.1875 C 6.207031 -0.40625 5.285156 -0.867188 4.359375 -1.578125 C 3.617188 -2.160156 2.96875 -2.96875 2.40625 -4 C 1.84375 -5.03125 1.46875 -6.125 1.28125 -7.28125 C 1.195312 -7.820312 1.15625 -8.34375 1.15625 -8.84375 C 1.15625 -9.34375 1.195312 -9.953125 1.28125 -10.671875 C 1.414062 -11.828125 1.660156 -12.789062 2.015625 -13.5625 C 2.367188 -14.34375 2.894531 -15.109375 3.59375 -15.859375 C 4.195312 -16.472656 4.703125 -16.878906 5.109375 -17.078125 C 5.921875 -17.472656 6.738281 -17.738281 7.5625 -17.875 C 7.695312 -17.882812 7.875 -17.910156 8.09375 -17.953125 C 8.3125 -18.003906 8.445312 -18.03125 8.5 -18.03125 Z M 11 -14.328125 C 10.476562 -14.523438 9.96875 -14.625 9.46875 -14.625 C 8.90625 -14.625 8.257812 -14.425781 7.53125 -14.03125 C 6.800781 -13.644531 6.195312 -12.804688 5.71875 -11.515625 C 5.613281 -11.222656 5.535156 -10.945312 5.484375 -10.6875 C 5.429688 -10.425781 5.398438 -10.015625 5.390625 -9.453125 C 5.367188 -9.265625 5.359375 -9.078125 5.359375 -8.890625 C 5.359375 -8.003906 5.472656 -7.210938 5.703125 -6.515625 C 5.929688 -5.828125 6.335938 -5.1875 6.921875 -4.59375 C 7.347656 -4.164062 7.722656 -3.878906 8.046875 -3.734375 C 8.378906 -3.585938 8.863281 -3.515625 9.5 -3.515625 C 9.875 -3.515625 10.15625 -3.523438 10.34375 -3.546875 C 10.53125 -3.578125 10.742188 -3.65625 10.984375 -3.78125 C 11.285156 -3.914062 11.597656 -4.140625 11.921875 -4.453125 C 12.242188 -4.765625 12.507812 -5.09375 12.71875 -5.4375 C 13.257812 -6.34375 13.550781 -7.191406 13.59375 -7.984375 C 13.632812 -8.773438 13.65625 -9.265625 13.65625 -9.453125 C 13.65625 -10.585938 13.460938 -11.546875 13.078125 -12.328125 C 12.890625 -12.773438 12.585938 -13.1875 12.171875 -13.5625 C 11.765625 -13.9375 11.375 -14.191406 11 -14.328125 Z M 11 -14.328125 "/></g></g></g><g fill="#000000" fill-opacity="1"><g transform="translate(243.817521, 196.124987)"><g><path d="M 2.53125 -17.84375 C 2.9375 -17.863281 4.242188 -17.875 6.453125 -17.875 C 7.796875 -17.851562 8.742188 -17.828125 9.296875 -17.796875 C 9.859375 -17.773438 10.304688 -17.71875 10.640625 -17.625 C 10.984375 -17.53125 11.367188 -17.375 11.796875 -17.15625 C 12.203125 -16.945312 12.597656 -16.648438 12.984375 -16.265625 C 13.378906 -15.890625 13.65625 -15.523438 13.8125 -15.171875 C 13.96875 -14.847656 14.09375 -14.429688 14.1875 -13.921875 C 14.289062 -13.421875 14.34375 -12.984375 14.34375 -12.609375 C 14.34375 -12.253906 14.28125 -11.800781 14.15625 -11.25 C 14.03125 -10.695312 13.878906 -10.257812 13.703125 -9.9375 C 13.515625 -9.570312 13.238281 -9.191406 12.875 -8.796875 C 12.507812 -8.410156 12.148438 -8.109375 11.796875 -7.890625 C 11.660156 -7.804688 11.535156 -7.71875 11.421875 -7.625 C 11.316406 -7.53125 11.265625 -7.460938 11.265625 -7.421875 C 11.265625 -7.378906 11.617188 -6.707031 12.328125 -5.40625 C 13.046875 -4.113281 13.597656 -3.144531 13.984375 -2.5 C 14.453125 -1.820312 14.8125 -1.296875 15.0625 -0.921875 C 15.4375 -0.390625 15.625 -0.0976562 15.625 -0.046875 C 15.625 -0.046875 15.617188 -0.0351562 15.609375 -0.015625 C 15.597656 -0.00390625 14.851562 0 13.375 0 L 11.1875 0 L 10.84375 -0.453125 C 10.4375 -1.035156 9.710938 -2.207031 8.671875 -3.96875 C 7.640625 -5.726562 7.125 -6.6875 7.125 -6.84375 C 7.125 -6.894531 7.015625 -6.921875 6.796875 -6.921875 L 5.921875 -6.921875 L 5.96875 0 L 1.78125 -0.046875 L 1.78125 -8.125 C 1.78125 -13.445312 1.804688 -16.40625 1.859375 -17 L 1.921875 -17.828125 Z M 5.890625 -10.109375 C 6.640625 -10.140625 7.226562 -10.164062 7.65625 -10.1875 C 8.425781 -10.21875 9.039062 -10.425781 9.5 -10.8125 C 9.957031 -11.207031 10.1875 -11.707031 10.1875 -12.3125 C 10.1875 -12.320312 10.1875 -12.34375 10.1875 -12.375 C 10.1875 -12.976562 9.988281 -13.457031 9.59375 -13.8125 C 9.363281 -14.050781 9.0625 -14.21875 8.6875 -14.3125 C 8.320312 -14.40625 7.773438 -14.484375 7.046875 -14.546875 L 5.84375 -14.609375 Z M 5.890625 -10.109375 "/></g></g></g><g fill="#000000" fill-opacity="1"><g transform="translate(260.02486, 196.124987)"><g><path d="M 3.625 -17.921875 C 4.75 -17.941406 5.738281 -17.953125 6.59375 -17.953125 C 8.632812 -17.953125 9.914062 -17.882812 10.4375 -17.75 C 11.238281 -17.5625 11.957031 -17.21875 12.59375 -16.71875 C 13.238281 -16.226562 13.710938 -15.648438 14.015625 -14.984375 C 14.367188 -14.222656 14.554688 -13.609375 14.578125 -13.140625 C 14.597656 -12.671875 14.609375 -12.382812 14.609375 -12.28125 C 14.609375 -11.550781 14.492188 -10.832031 14.265625 -10.125 C 14.046875 -9.414062 13.6875 -8.738281 13.1875 -8.09375 C 12.6875 -7.445312 12.085938 -6.9375 11.390625 -6.5625 C 10.878906 -6.289062 10.367188 -6.101562 9.859375 -6 C 9.359375 -5.894531 8.804688 -5.84375 8.203125 -5.84375 C 8.097656 -5.84375 7.992188 -5.84375 7.890625 -5.84375 C 7.328125 -5.84375 6.96875 -5.859375 6.8125 -5.890625 C 6.664062 -5.929688 6.582031 -5.992188 6.5625 -6.078125 C 6.5625 -6.160156 6.550781 -6.238281 6.53125 -6.3125 C 6.53125 -6.363281 6.515625 -6.898438 6.484375 -7.921875 C 6.453125 -8.953125 6.4375 -9.46875 6.4375 -9.46875 C 6.4375 -9.46875 6.484375 -9.472656 6.578125 -9.484375 C 6.679688 -9.492188 6.789062 -9.503906 6.90625 -9.515625 C 7.03125 -9.535156 7.1875 -9.546875 7.375 -9.546875 C 8.125 -9.628906 8.671875 -9.75 9.015625 -9.90625 C 9.441406 -10.113281 9.796875 -10.425781 10.078125 -10.84375 C 10.359375 -11.257812 10.5 -11.6875 10.5 -12.125 C 10.5 -12.382812 10.40625 -12.675781 10.21875 -13 C 10.039062 -13.332031 9.851562 -13.601562 9.65625 -13.8125 C 9.382812 -14.050781 9.0625 -14.21875 8.6875 -14.3125 C 8.320312 -14.414062 7.773438 -14.476562 7.046875 -14.5 L 5.828125 -14.53125 C 5.828125 -5.007812 5.800781 -0.203125 5.75 -0.109375 C 5.707031 -0.0546875 5.378906 -0.0234375 4.765625 -0.015625 C 4.160156 -0.00390625 3.789062 0 3.65625 0 C 2.832031 0 2.3125 -0.0234375 2.09375 -0.078125 L 1.78125 -0.125 L 1.78125 -17.921875 Z M 3.625 -17.921875 "/></g></g></g></svg>