<svg xmlns="http://www.w3.org/2000/svg" xmlns:xlink="http://www.w3.org/1999/xlink" width="500" zoomAndPan="magnify" viewBox="0 0 375 374.999991" height="500" preserveAspectRatio="xMidYMid meet" version="1.0"><defs><g/><clipPath id="088e374852"><path d="M 60.128906 162.753906 L 109.617188 162.753906 L 109.617188 212.246094 L 60.128906 212.246094 Z M 60.128906 162.753906 " clip-rule="nonzero"/></clipPath><clipPath id="da4e90b103"><path d="M 84.875 162.753906 C 71.207031 162.753906 60.128906 173.832031 60.128906 187.5 C 60.128906 201.167969 71.207031 212.246094 84.875 212.246094 C 98.539062 212.246094 109.617188 201.167969 109.617188 187.5 C 109.617188 173.832031 98.539062 162.753906 84.875 162.753906 Z M 84.875 162.753906 " clip-rule="nonzero"/></clipPath><clipPath id="4ef0e0bae5"><path d="M 66.609375 175.164062 L 103.191406 175.164062 L 103.191406 207.125 L 66.609375 207.125 Z M 66.609375 175.164062 " clip-rule="nonzero"/></clipPath><clipPath id="adc9c964c1"><path d="M 84.875 207.125 L 103.136719 175.164062 L 66.609375 175.164062 Z M 84.875 207.125 " clip-rule="nonzero"/></clipPath><clipPath id="1c9337a563"><path d="M 66.609375 175.167969 L 103.125 175.167969 L 103.125 207.121094 L 66.609375 207.121094 Z M 66.609375 175.167969 " clip-rule="nonzero"/></clipPath><clipPath id="1c901c73ec"><path d="M 84.867188 207.121094 L 103.125 175.167969 L 66.609375 175.167969 Z M 84.867188 207.121094 " clip-rule="nonzero"/></clipPath><linearGradient x1="-0.00000451393" gradientTransform="matrix(0.760742, 0, 0, 0.760742, 0.00000343394, 0.0000113316)" y1="28" x2="63.99999" gradientUnits="userSpaceOnUse" y2="28" id="8c46434dd4"><stop stop-opacity="1" stop-color="rgb(4.699707%, 75.299072%, 87.5%)" offset="0"/><stop stop-opacity="1" stop-color="rgb(5.072021%, 75.344849%, 87.294006%)" offset="0.00390625"/><stop stop-opacity="1" stop-color="rgb(5.444336%, 75.392151%, 87.088013%)" offset="0.0078125"/><stop stop-opacity="1" stop-color="rgb(5.81665%, 75.437927%, 86.882019%)" offset="0.0117188"/><stop stop-opacity="1" stop-color="rgb(6.188965%, 75.483704%, 86.677551%)" offset="0.015625"/><stop stop-opacity="1" stop-color="rgb(6.559753%, 75.52948%, 86.471558%)" offset="0.0195312"/><stop stop-opacity="1" stop-color="rgb(6.932068%, 75.575256%, 86.26709%)" offset="0.0234375"/><stop stop-opacity="1" stop-color="rgb(7.304382%, 75.621033%, 86.061096%)" offset="0.0273438"/><stop stop-opacity="1" stop-color="rgb(7.676697%, 75.668335%, 85.855103%)" offset="0.03125"/><stop stop-opacity="1" stop-color="rgb(8.049011%, 75.714111%, 85.649109%)" offset="0.0351562"/><stop stop-opacity="1" stop-color="rgb(8.421326%, 75.759888%, 85.444641%)" offset="0.0390625"/><stop stop-opacity="1" stop-color="rgb(8.79364%, 75.805664%, 85.238647%)" offset="0.0429688"/><stop stop-opacity="1" stop-color="rgb(9.165955%, 75.852966%, 85.03418%)" offset="0.046875"/><stop stop-opacity="1" stop-color="rgb(9.538269%, 75.898743%, 84.828186%)" offset="0.0507812"/><stop stop-opacity="1" stop-color="rgb(9.910583%, 75.944519%, 84.622192%)" offset="0.0546875"/><stop stop-opacity="1" stop-color="rgb(10.282898%, 75.990295%, 84.416199%)" offset="0.0585938"/><stop stop-opacity="1" stop-color="rgb(10.655212%, 76.036072%, 84.211731%)" offset="0.0625"/><stop stop-opacity="1" stop-color="rgb(11.027527%, 76.081848%, 84.005737%)" offset="0.0664062"/><stop stop-opacity="1" stop-color="rgb(11.399841%, 76.12915%, 83.80127%)" offset="0.0703125"/><stop stop-opacity="1" stop-color="rgb(11.772156%, 76.174927%, 83.595276%)" offset="0.0742187"/><stop stop-opacity="1" stop-color="rgb(12.14447%, 76.220703%, 83.389282%)" offset="0.078125"/><stop stop-opacity="1" stop-color="rgb(12.516785%, 76.266479%, 83.183289%)" offset="0.0820313"/><stop stop-opacity="1" stop-color="rgb(12.889099%, 76.313782%, 82.978821%)" offset="0.0859375"/><stop stop-opacity="1" stop-color="rgb(13.261414%, 76.359558%, 82.772827%)" offset="0.0898438"/><stop stop-opacity="1" stop-color="rgb(13.633728%, 76.405334%, 82.568359%)" offset="0.09375"/><stop stop-opacity="1" stop-color="rgb(14.006042%, 76.451111%, 82.362366%)" offset="0.0976562"/><stop stop-opacity="1" stop-color="rgb(14.378357%, 76.498413%, 82.156372%)" offset="0.101562"/><stop stop-opacity="1" stop-color="rgb(14.750671%, 76.544189%, 81.950378%)" offset="0.105469"/><stop stop-opacity="1" stop-color="rgb(15.122986%, 76.589966%, 81.745911%)" offset="0.109375"/><stop stop-opacity="1" stop-color="rgb(15.4953%, 76.635742%, 81.539917%)" offset="0.113281"/><stop stop-opacity="1" stop-color="rgb(15.867615%, 76.681519%, 81.335449%)" offset="0.117188"/><stop stop-opacity="1" stop-color="rgb(16.239929%, 76.727295%, 81.129456%)" offset="0.121094"/><stop stop-opacity="1" stop-color="rgb(16.612244%, 76.774597%, 80.924988%)" offset="0.125"/><stop stop-opacity="1" stop-color="rgb(16.984558%, 76.820374%, 80.718994%)" offset="0.128906"/><stop stop-opacity="1" stop-color="rgb(17.356873%, 76.86615%, 80.513%)" offset="0.132812"/><stop stop-opacity="1" stop-color="rgb(17.729187%, 76.911926%, 80.307007%)" offset="0.136719"/><stop stop-opacity="1" stop-color="rgb(18.101501%, 76.959229%, 80.102539%)" offset="0.140625"/><stop stop-opacity="1" stop-color="rgb(18.47229%, 77.005005%, 79.896545%)" offset="0.144531"/><stop stop-opacity="1" stop-color="rgb(18.844604%, 77.050781%, 79.692078%)" offset="0.148437"/><stop stop-opacity="1" stop-color="rgb(19.216919%, 77.096558%, 79.486084%)" offset="0.152344"/><stop stop-opacity="1" stop-color="rgb(19.589233%, 77.142334%, 79.28009%)" offset="0.15625"/><stop stop-opacity="1" stop-color="rgb(19.961548%, 77.18811%, 79.074097%)" offset="0.160156"/><stop stop-opacity="1" stop-color="rgb(20.333862%, 77.235413%, 78.869629%)" offset="0.164063"/><stop stop-opacity="1" stop-color="rgb(20.706177%, 77.281189%, 78.663635%)" offset="0.167969"/><stop stop-opacity="1" stop-color="rgb(21.078491%, 77.326965%, 78.459167%)" offset="0.171875"/><stop stop-opacity="1" stop-color="rgb(21.450806%, 77.372742%, 78.253174%)" offset="0.175781"/><stop stop-opacity="1" stop-color="rgb(21.82312%, 77.420044%, 78.04718%)" offset="0.179688"/><stop stop-opacity="1" stop-color="rgb(22.195435%, 77.46582%, 77.841187%)" offset="0.183594"/><stop stop-opacity="1" stop-color="rgb(22.567749%, 77.511597%, 77.636719%)" offset="0.1875"/><stop stop-opacity="1" stop-color="rgb(22.940063%, 77.557373%, 77.430725%)" offset="0.191406"/><stop stop-opacity="1" stop-color="rgb(23.312378%, 77.604675%, 77.226257%)" offset="0.195312"/><stop stop-opacity="1" stop-color="rgb(23.684692%, 77.650452%, 77.020264%)" offset="0.199219"/><stop stop-opacity="1" stop-color="rgb(24.057007%, 77.696228%, 76.81427%)" offset="0.203125"/><stop stop-opacity="1" stop-color="rgb(24.429321%, 77.742004%, 76.608276%)" offset="0.207031"/><stop stop-opacity="1" stop-color="rgb(24.801636%, 77.787781%, 76.403809%)" offset="0.210937"/><stop stop-opacity="1" stop-color="rgb(25.17395%, 77.833557%, 76.197815%)" offset="0.214844"/><stop stop-opacity="1" stop-color="rgb(25.546265%, 77.880859%, 75.993347%)" offset="0.21875"/><stop stop-opacity="1" stop-color="rgb(25.918579%, 77.926636%, 75.787354%)" offset="0.222656"/><stop stop-opacity="1" stop-color="rgb(26.290894%, 77.972412%, 75.58136%)" offset="0.226563"/><stop stop-opacity="1" stop-color="rgb(26.663208%, 78.018188%, 75.375366%)" offset="0.230469"/><stop stop-opacity="1" stop-color="rgb(27.035522%, 78.065491%, 75.170898%)" offset="0.234375"/><stop stop-opacity="1" stop-color="rgb(27.407837%, 78.111267%, 74.964905%)" offset="0.238281"/><stop stop-opacity="1" stop-color="rgb(27.780151%, 78.157043%, 74.760437%)" offset="0.242188"/><stop stop-opacity="1" stop-color="rgb(28.152466%, 78.20282%, 74.554443%)" offset="0.246094"/><stop stop-opacity="1" stop-color="rgb(28.52478%, 78.248596%, 74.349976%)" offset="0.25"/><stop stop-opacity="1" stop-color="rgb(28.897095%, 78.294373%, 74.143982%)" offset="0.253906"/><stop stop-opacity="1" stop-color="rgb(29.269409%, 78.341675%, 73.937988%)" offset="0.257812"/><stop stop-opacity="1" stop-color="rgb(29.641724%, 78.387451%, 73.731995%)" offset="0.261719"/><stop stop-opacity="1" stop-color="rgb(30.014038%, 78.433228%, 73.527527%)" offset="0.265625"/><stop stop-opacity="1" stop-color="rgb(30.384827%, 78.479004%, 73.321533%)" offset="0.269531"/><stop stop-opacity="1" stop-color="rgb(30.757141%, 78.526306%, 73.117065%)" offset="0.273438"/><stop stop-opacity="1" stop-color="rgb(31.129456%, 78.572083%, 72.911072%)" offset="0.277344"/><stop stop-opacity="1" stop-color="rgb(31.50177%, 78.617859%, 72.705078%)" offset="0.28125"/><stop stop-opacity="1" stop-color="rgb(31.874084%, 78.663635%, 72.499084%)" offset="0.285156"/><stop stop-opacity="1" stop-color="rgb(32.246399%, 78.709412%, 72.294617%)" offset="0.289062"/><stop stop-opacity="1" stop-color="rgb(32.618713%, 78.755188%, 72.088623%)" offset="0.292969"/><stop stop-opacity="1" stop-color="rgb(32.991028%, 78.80249%, 71.884155%)" offset="0.296875"/><stop stop-opacity="1" stop-color="rgb(33.363342%, 78.848267%, 71.678162%)" offset="0.300781"/><stop stop-opacity="1" stop-color="rgb(33.735657%, 78.894043%, 71.472168%)" offset="0.304687"/><stop stop-opacity="1" stop-color="rgb(34.107971%, 78.939819%, 71.266174%)" offset="0.308594"/><stop stop-opacity="1" stop-color="rgb(34.480286%, 78.987122%, 71.061707%)" offset="0.3125"/><stop stop-opacity="1" stop-color="rgb(34.8526%, 79.032898%, 70.855713%)" offset="0.316406"/><stop stop-opacity="1" stop-color="rgb(35.224915%, 79.078674%, 70.651245%)" offset="0.320313"/><stop stop-opacity="1" stop-color="rgb(35.597229%, 79.124451%, 70.445251%)" offset="0.324219"/><stop stop-opacity="1" stop-color="rgb(35.969543%, 79.171753%, 70.239258%)" offset="0.328125"/><stop stop-opacity="1" stop-color="rgb(36.341858%, 79.217529%, 70.033264%)" offset="0.332031"/><stop stop-opacity="1" stop-color="rgb(36.714172%, 79.263306%, 69.828796%)" offset="0.335938"/><stop stop-opacity="1" stop-color="rgb(37.086487%, 79.309082%, 69.622803%)" offset="0.339844"/><stop stop-opacity="1" stop-color="rgb(37.458801%, 79.354858%, 69.418335%)" offset="0.34375"/><stop stop-opacity="1" stop-color="rgb(37.831116%, 79.400635%, 69.212341%)" offset="0.347656"/><stop stop-opacity="1" stop-color="rgb(38.20343%, 79.447937%, 69.006348%)" offset="0.351562"/><stop stop-opacity="1" stop-color="rgb(38.575745%, 79.493713%, 68.800354%)" offset="0.355469"/><stop stop-opacity="1" stop-color="rgb(38.948059%, 79.53949%, 68.595886%)" offset="0.359375"/><stop stop-opacity="1" stop-color="rgb(39.320374%, 79.585266%, 68.389893%)" offset="0.363281"/><stop stop-opacity="1" stop-color="rgb(39.692688%, 79.632568%, 68.185425%)" offset="0.367188"/><stop stop-opacity="1" stop-color="rgb(40.065002%, 79.678345%, 67.979431%)" offset="0.371094"/><stop stop-opacity="1" stop-color="rgb(40.437317%, 79.724121%, 67.774963%)" offset="0.375"/><stop stop-opacity="1" stop-color="rgb(40.809631%, 79.769897%, 67.56897%)" offset="0.378906"/><stop stop-opacity="1" stop-color="rgb(41.181946%, 79.815674%, 67.362976%)" offset="0.382812"/><stop stop-opacity="1" stop-color="rgb(41.552734%, 79.86145%, 67.156982%)" offset="0.386719"/><stop stop-opacity="1" stop-color="rgb(41.925049%, 79.908752%, 66.952515%)" offset="0.390625"/><stop stop-opacity="1" stop-color="rgb(42.297363%, 79.954529%, 66.746521%)" offset="0.394531"/><stop stop-opacity="1" stop-color="rgb(42.669678%, 80.000305%, 66.542053%)" offset="0.398438"/><stop stop-opacity="1" stop-color="rgb(43.041992%, 80.046082%, 66.33606%)" offset="0.402344"/><stop stop-opacity="1" stop-color="rgb(43.414307%, 80.093384%, 66.130066%)" offset="0.40625"/><stop stop-opacity="1" stop-color="rgb(43.786621%, 80.13916%, 65.924072%)" offset="0.410156"/><stop stop-opacity="1" stop-color="rgb(44.158936%, 80.184937%, 65.719604%)" offset="0.414062"/><stop stop-opacity="1" stop-color="rgb(44.53125%, 80.230713%, 65.513611%)" offset="0.417969"/><stop stop-opacity="1" stop-color="rgb(44.903564%, 80.278015%, 65.309143%)" offset="0.421875"/><stop stop-opacity="1" stop-color="rgb(45.275879%, 80.323792%, 65.103149%)" offset="0.425781"/><stop stop-opacity="1" stop-color="rgb(45.648193%, 80.369568%, 64.897156%)" offset="0.429687"/><stop stop-opacity="1" stop-color="rgb(46.020508%, 80.415344%, 64.691162%)" offset="0.433594"/><stop stop-opacity="1" stop-color="rgb(46.392822%, 80.461121%, 64.486694%)" offset="0.4375"/><stop stop-opacity="1" stop-color="rgb(46.765137%, 80.506897%, 64.280701%)" offset="0.441406"/><stop stop-opacity="1" stop-color="rgb(47.137451%, 80.554199%, 64.076233%)" offset="0.445313"/><stop stop-opacity="1" stop-color="rgb(47.509766%, 80.599976%, 63.870239%)" offset="0.449219"/><stop stop-opacity="1" stop-color="rgb(47.88208%, 80.645752%, 63.664246%)" offset="0.453125"/><stop stop-opacity="1" stop-color="rgb(48.254395%, 80.691528%, 63.458252%)" offset="0.457031"/><stop stop-opacity="1" stop-color="rgb(48.626709%, 80.738831%, 63.253784%)" offset="0.460938"/><stop stop-opacity="1" stop-color="rgb(48.999023%, 80.784607%, 63.047791%)" offset="0.464844"/><stop stop-opacity="1" stop-color="rgb(49.371338%, 80.830383%, 62.843323%)" offset="0.46875"/><stop stop-opacity="1" stop-color="rgb(49.743652%, 80.87616%, 62.637329%)" offset="0.472656"/><stop stop-opacity="1" stop-color="rgb(50.115967%, 80.921936%, 62.431335%)" offset="0.476562"/><stop stop-opacity="1" stop-color="rgb(50.488281%, 80.967712%, 62.225342%)" offset="0.480469"/><stop stop-opacity="1" stop-color="rgb(50.860596%, 81.015015%, 62.020874%)" offset="0.484375"/><stop stop-opacity="1" stop-color="rgb(51.23291%, 81.060791%, 61.81488%)" offset="0.488281"/><stop stop-opacity="1" stop-color="rgb(51.605225%, 81.106567%, 61.610413%)" offset="0.492188"/><stop stop-opacity="1" stop-color="rgb(51.977539%, 81.152344%, 61.404419%)" offset="0.496094"/><stop stop-opacity="1" stop-color="rgb(52.349854%, 81.199646%, 61.199951%)" offset="0.5"/><stop stop-opacity="1" stop-color="rgb(52.722168%, 81.245422%, 60.993958%)" offset="0.503906"/><stop stop-opacity="1" stop-color="rgb(53.094482%, 81.291199%, 60.787964%)" offset="0.507812"/><stop stop-opacity="1" stop-color="rgb(53.465271%, 81.336975%, 60.58197%)" offset="0.511719"/><stop stop-opacity="1" stop-color="rgb(53.837585%, 81.384277%, 60.377502%)" offset="0.515625"/><stop stop-opacity="1" stop-color="rgb(54.2099%, 81.430054%, 60.171509%)" offset="0.519531"/><stop stop-opacity="1" stop-color="rgb(54.582214%, 81.47583%, 59.967041%)" offset="0.523438"/><stop stop-opacity="1" stop-color="rgb(54.954529%, 81.521606%, 59.761047%)" offset="0.527344"/><stop stop-opacity="1" stop-color="rgb(55.326843%, 81.567383%, 59.555054%)" offset="0.53125"/><stop stop-opacity="1" stop-color="rgb(55.699158%, 81.613159%, 59.34906%)" offset="0.535156"/><stop stop-opacity="1" stop-color="rgb(56.071472%, 81.660461%, 59.144592%)" offset="0.539062"/><stop stop-opacity="1" stop-color="rgb(56.443787%, 81.706238%, 58.938599%)" offset="0.542969"/><stop stop-opacity="1" stop-color="rgb(56.816101%, 81.752014%, 58.734131%)" offset="0.546875"/><stop stop-opacity="1" stop-color="rgb(57.188416%, 81.797791%, 58.528137%)" offset="0.550781"/><stop stop-opacity="1" stop-color="rgb(57.56073%, 81.845093%, 58.322144%)" offset="0.554688"/><stop stop-opacity="1" stop-color="rgb(57.933044%, 81.890869%, 58.11615%)" offset="0.558594"/><stop stop-opacity="1" stop-color="rgb(58.305359%, 81.936646%, 57.911682%)" offset="0.5625"/><stop stop-opacity="1" stop-color="rgb(58.677673%, 81.982422%, 57.705688%)" offset="0.566406"/><stop stop-opacity="1" stop-color="rgb(59.049988%, 82.028198%, 57.501221%)" offset="0.570312"/><stop stop-opacity="1" stop-color="rgb(59.422302%, 82.073975%, 57.295227%)" offset="0.574219"/><stop stop-opacity="1" stop-color="rgb(59.794617%, 82.121277%, 57.089233%)" offset="0.578125"/><stop stop-opacity="1" stop-color="rgb(60.166931%, 82.167053%, 56.88324%)" offset="0.582031"/><stop stop-opacity="1" stop-color="rgb(60.539246%, 82.21283%, 56.678772%)" offset="0.585937"/><stop stop-opacity="1" stop-color="rgb(60.91156%, 82.258606%, 56.472778%)" offset="0.589844"/><stop stop-opacity="1" stop-color="rgb(61.283875%, 82.305908%, 56.268311%)" offset="0.59375"/><stop stop-opacity="1" stop-color="rgb(61.656189%, 82.351685%, 56.062317%)" offset="0.597656"/><stop stop-opacity="1" stop-color="rgb(62.028503%, 82.397461%, 55.856323%)" offset="0.601562"/><stop stop-opacity="1" stop-color="rgb(62.400818%, 82.443237%, 55.65033%)" offset="0.605469"/><stop stop-opacity="1" stop-color="rgb(62.773132%, 82.49054%, 55.445862%)" offset="0.609375"/><stop stop-opacity="1" stop-color="rgb(63.145447%, 82.536316%, 55.239868%)" offset="0.613281"/><stop stop-opacity="1" stop-color="rgb(63.517761%, 82.582092%, 55.0354%)" offset="0.617187"/><stop stop-opacity="1" stop-color="rgb(63.890076%, 82.627869%, 54.829407%)" offset="0.621094"/><stop stop-opacity="1" stop-color="rgb(64.26239%, 82.673645%, 54.624939%)" offset="0.625"/><stop stop-opacity="1" stop-color="rgb(64.634705%, 82.719421%, 54.418945%)" offset="0.628906"/><stop stop-opacity="1" stop-color="rgb(65.007019%, 82.766724%, 54.212952%)" offset="0.632813"/><stop stop-opacity="1" stop-color="rgb(65.377808%, 82.8125%, 54.006958%)" offset="0.636719"/><stop stop-opacity="1" stop-color="rgb(65.750122%, 82.858276%, 53.80249%)" offset="0.640625"/><stop stop-opacity="1" stop-color="rgb(66.122437%, 82.904053%, 53.596497%)" offset="0.644531"/><stop stop-opacity="1" stop-color="rgb(66.494751%, 82.951355%, 53.392029%)" offset="0.648438"/><stop stop-opacity="1" stop-color="rgb(66.867065%, 82.997131%, 53.186035%)" offset="0.652344"/><stop stop-opacity="1" stop-color="rgb(67.23938%, 83.042908%, 52.980042%)" offset="0.65625"/><stop stop-opacity="1" stop-color="rgb(67.611694%, 83.088684%, 52.774048%)" offset="0.660156"/><stop stop-opacity="1" stop-color="rgb(67.984009%, 83.13446%, 52.56958%)" offset="0.664063"/><stop stop-opacity="1" stop-color="rgb(68.356323%, 83.180237%, 52.363586%)" offset="0.667969"/><stop stop-opacity="1" stop-color="rgb(68.728638%, 83.227539%, 52.159119%)" offset="0.671875"/><stop stop-opacity="1" stop-color="rgb(69.100952%, 83.273315%, 51.953125%)" offset="0.675781"/><stop stop-opacity="1" stop-color="rgb(69.473267%, 83.319092%, 51.747131%)" offset="0.679688"/><stop stop-opacity="1" stop-color="rgb(69.845581%, 83.364868%, 51.541138%)" offset="0.683594"/><stop stop-opacity="1" stop-color="rgb(70.217896%, 83.41217%, 51.33667%)" offset="0.6875"/><stop stop-opacity="1" stop-color="rgb(70.59021%, 83.457947%, 51.130676%)" offset="0.691406"/><stop stop-opacity="1" stop-color="rgb(70.962524%, 83.503723%, 50.926208%)" offset="0.695312"/><stop stop-opacity="1" stop-color="rgb(71.334839%, 83.5495%, 50.720215%)" offset="0.699219"/><stop stop-opacity="1" stop-color="rgb(71.707153%, 83.596802%, 50.514221%)" offset="0.703125"/><stop stop-opacity="1" stop-color="rgb(72.079468%, 83.642578%, 50.308228%)" offset="0.707031"/><stop stop-opacity="1" stop-color="rgb(72.451782%, 83.688354%, 50.10376%)" offset="0.710938"/><stop stop-opacity="1" stop-color="rgb(72.824097%, 83.734131%, 49.897766%)" offset="0.714844"/><stop stop-opacity="1" stop-color="rgb(73.196411%, 83.779907%, 49.693298%)" offset="0.71875"/><stop stop-opacity="1" stop-color="rgb(73.568726%, 83.825684%, 49.487305%)" offset="0.722656"/><stop stop-opacity="1" stop-color="rgb(73.94104%, 83.872986%, 49.281311%)" offset="0.726562"/><stop stop-opacity="1" stop-color="rgb(74.313354%, 83.918762%, 49.075317%)" offset="0.730469"/><stop stop-opacity="1" stop-color="rgb(74.685669%, 83.964539%, 48.87085%)" offset="0.734375"/><stop stop-opacity="1" stop-color="rgb(75.057983%, 84.010315%, 48.664856%)" offset="0.738281"/><stop stop-opacity="1" stop-color="rgb(75.430298%, 84.057617%, 48.460388%)" offset="0.742188"/><stop stop-opacity="1" stop-color="rgb(75.802612%, 84.103394%, 48.254395%)" offset="0.746094"/><stop stop-opacity="1" stop-color="rgb(76.174927%, 84.14917%, 48.049927%)" offset="0.75"/><stop stop-opacity="1" stop-color="rgb(76.545715%, 84.194946%, 47.843933%)" offset="0.753906"/><stop stop-opacity="1" stop-color="rgb(76.91803%, 84.240723%, 47.637939%)" offset="0.757812"/><stop stop-opacity="1" stop-color="rgb(77.290344%, 84.286499%, 47.431946%)" offset="0.761719"/><stop stop-opacity="1" stop-color="rgb(77.662659%, 84.333801%, 47.227478%)" offset="0.765625"/><stop stop-opacity="1" stop-color="rgb(78.034973%, 84.379578%, 47.021484%)" offset="0.769531"/><stop stop-opacity="1" stop-color="rgb(78.407288%, 84.425354%, 46.817017%)" offset="0.773438"/><stop stop-opacity="1" stop-color="rgb(78.779602%, 84.47113%, 46.611023%)" offset="0.777344"/><stop stop-opacity="1" stop-color="rgb(79.151917%, 84.518433%, 46.405029%)" offset="0.78125"/><stop stop-opacity="1" stop-color="rgb(79.524231%, 84.564209%, 46.199036%)" offset="0.785156"/><stop stop-opacity="1" stop-color="rgb(79.896545%, 84.609985%, 45.994568%)" offset="0.789062"/><stop stop-opacity="1" stop-color="rgb(80.26886%, 84.655762%, 45.788574%)" offset="0.792969"/><stop stop-opacity="1" stop-color="rgb(80.641174%, 84.703064%, 45.584106%)" offset="0.796875"/><stop stop-opacity="1" stop-color="rgb(81.013489%, 84.74884%, 45.378113%)" offset="0.800781"/><stop stop-opacity="1" stop-color="rgb(81.385803%, 84.794617%, 45.172119%)" offset="0.804688"/><stop stop-opacity="1" stop-color="rgb(81.758118%, 84.840393%, 44.966125%)" offset="0.808594"/><stop stop-opacity="1" stop-color="rgb(82.130432%, 84.886169%, 44.761658%)" offset="0.8125"/><stop stop-opacity="1" stop-color="rgb(82.502747%, 84.931946%, 44.555664%)" offset="0.816406"/><stop stop-opacity="1" stop-color="rgb(82.875061%, 84.979248%, 44.351196%)" offset="0.820312"/><stop stop-opacity="1" stop-color="rgb(83.247375%, 85.025024%, 44.145203%)" offset="0.824219"/><stop stop-opacity="1" stop-color="rgb(83.61969%, 85.070801%, 43.939209%)" offset="0.828125"/><stop stop-opacity="1" stop-color="rgb(83.992004%, 85.116577%, 43.733215%)" offset="0.832031"/><stop stop-opacity="1" stop-color="rgb(84.364319%, 85.163879%, 43.528748%)" offset="0.835937"/><stop stop-opacity="1" stop-color="rgb(84.736633%, 85.209656%, 43.322754%)" offset="0.839844"/><stop stop-opacity="1" stop-color="rgb(85.108948%, 85.255432%, 43.118286%)" offset="0.84375"/><stop stop-opacity="1" stop-color="rgb(85.481262%, 85.301208%, 42.912292%)" offset="0.847656"/><stop stop-opacity="1" stop-color="rgb(85.853577%, 85.346985%, 42.706299%)" offset="0.851562"/><stop stop-opacity="1" stop-color="rgb(86.225891%, 85.392761%, 42.500305%)" offset="0.855469"/><stop stop-opacity="1" stop-color="rgb(86.598206%, 85.440063%, 42.295837%)" offset="0.859375"/><stop stop-opacity="1" stop-color="rgb(86.97052%, 85.48584%, 42.089844%)" offset="0.863281"/><stop stop-opacity="1" stop-color="rgb(87.342834%, 85.531616%, 41.885376%)" offset="0.867187"/><stop stop-opacity="1" stop-color="rgb(87.715149%, 85.577393%, 41.679382%)" offset="0.871094"/><stop stop-opacity="1" stop-color="rgb(88.087463%, 85.624695%, 41.474915%)" offset="0.875"/><stop stop-opacity="1" stop-color="rgb(88.458252%, 85.670471%, 41.268921%)" offset="0.878906"/><stop stop-opacity="1" stop-color="rgb(88.830566%, 85.716248%, 41.062927%)" offset="0.882813"/><stop stop-opacity="1" stop-color="rgb(89.202881%, 85.762024%, 40.856934%)" offset="0.886719"/><stop stop-opacity="1" stop-color="rgb(89.575195%, 85.809326%, 40.652466%)" offset="0.890625"/><stop stop-opacity="1" stop-color="rgb(89.94751%, 85.855103%, 40.446472%)" offset="0.894531"/><stop stop-opacity="1" stop-color="rgb(90.319824%, 85.900879%, 40.242004%)" offset="0.898438"/><stop stop-opacity="1" stop-color="rgb(90.692139%, 85.946655%, 40.036011%)" offset="0.902344"/><stop stop-opacity="1" stop-color="rgb(91.064453%, 85.992432%, 39.830017%)" offset="0.90625"/><stop stop-opacity="1" stop-color="rgb(91.436768%, 86.038208%, 39.624023%)" offset="0.910156"/><stop stop-opacity="1" stop-color="rgb(91.809082%, 86.08551%, 39.419556%)" offset="0.914063"/><stop stop-opacity="1" stop-color="rgb(92.181396%, 86.131287%, 39.213562%)" offset="0.917969"/><stop stop-opacity="1" stop-color="rgb(92.553711%, 86.177063%, 39.009094%)" offset="0.921875"/><stop stop-opacity="1" stop-color="rgb(92.926025%, 86.222839%, 38.803101%)" offset="0.925781"/><stop stop-opacity="1" stop-color="rgb(93.29834%, 86.270142%, 38.597107%)" offset="0.929688"/><stop stop-opacity="1" stop-color="rgb(93.670654%, 86.315918%, 38.391113%)" offset="0.933594"/><stop stop-opacity="1" stop-color="rgb(94.042969%, 86.361694%, 38.186646%)" offset="0.9375"/><stop stop-opacity="1" stop-color="rgb(94.415283%, 86.407471%, 37.980652%)" offset="0.941406"/><stop stop-opacity="1" stop-color="rgb(94.787598%, 86.453247%, 37.776184%)" offset="0.945312"/><stop stop-opacity="1" stop-color="rgb(95.159912%, 86.499023%, 37.57019%)" offset="0.949219"/><stop stop-opacity="1" stop-color="rgb(95.532227%, 86.546326%, 37.364197%)" offset="0.953125"/><stop stop-opacity="1" stop-color="rgb(95.904541%, 86.592102%, 37.158203%)" offset="0.957031"/><stop stop-opacity="1" stop-color="rgb(96.276855%, 86.637878%, 36.953735%)" offset="0.960938"/><stop stop-opacity="1" stop-color="rgb(96.64917%, 86.683655%, 36.747742%)" offset="0.964844"/><stop stop-opacity="1" stop-color="rgb(97.021484%, 86.730957%, 36.543274%)" offset="0.96875"/><stop stop-opacity="1" stop-color="rgb(97.393799%, 86.776733%, 36.33728%)" offset="0.972656"/><stop stop-opacity="1" stop-color="rgb(97.766113%, 86.82251%, 36.132812%)" offset="0.976562"/><stop stop-opacity="1" stop-color="rgb(98.138428%, 86.868286%, 35.926819%)" offset="0.980469"/><stop stop-opacity="1" stop-color="rgb(98.510742%, 86.915588%, 35.720825%)" offset="0.984375"/><stop stop-opacity="1" stop-color="rgb(98.883057%, 86.961365%, 35.514832%)" offset="0.988281"/><stop stop-opacity="1" stop-color="rgb(99.255371%, 87.007141%, 35.310364%)" offset="0.992188"/><stop stop-opacity="1" stop-color="rgb(99.62616%, 87.052917%, 35.10437%)" offset="0.996094"/><stop stop-opacity="1" stop-color="rgb(99.998474%, 87.098694%, 34.899902%)" offset="1"/></linearGradient></defs><g clip-path="url(#088e374852)"><g clip-path="url(#da4e90b103)"><path fill="#ffffff" d="M 60.128906 162.753906 L 109.617188 162.753906 L 109.617188 212.246094 L 60.128906 212.246094 Z M 60.128906 162.753906 " fill-opacity="1" fill-rule="nonzero"/></g></g><g clip-path="url(#4ef0e0bae5)"><g clip-path="url(#adc9c964c1)"><path fill="#ffffff" d="M 66.609375 175.164062 L 103.191406 175.164062 L 103.191406 207.125 L 66.609375 207.125 Z M 66.609375 175.164062 " fill-opacity="1" fill-rule="nonzero"/></g></g><g clip-path="url(#1c9337a563)"><g clip-path="url(#1c901c73ec)"><path stroke-linecap="butt" transform="matrix(0.75, 0, 0, 0.75, 66.610855, 175.168817)" fill="none" stroke-linejoin="miter" d="M 24.341778 42.603038 L 48.685529 -0.0011314 L -0.00197377 -0.0011314 Z M 24.341778 42.603038 " stroke="url(#8c46434dd4)" stroke-width="6" stroke-miterlimit="4"/></g></g><g fill="#000000" fill-opacity="1"><g transform="translate(79.476906, 191.653185)"><g><path d="M 8.546875 -11.109375 L 9.8125 -11.109375 C 9.820312 -11.109375 9.835938 -11.078125 9.859375 -11.015625 L 9.859375 -0.015625 L 0.921875 -0.015625 L 0.921875 -5.5625 L 0.953125 -11.09375 L 2.203125 -11.109375 L 3.46875 -11.109375 L 3.46875 -1.78125 L 3.5625 -1.78125 C 3.582031 -1.78125 3.664062 -1.773438 3.8125 -1.765625 C 3.96875 -1.765625 4.15625 -1.765625 4.375 -1.765625 C 4.59375 -1.765625 4.832031 -1.765625 5.09375 -1.765625 C 5.351562 -1.765625 5.601562 -1.765625 5.84375 -1.765625 L 7.3125 -1.765625 L 7.328125 -6.4375 L 7.328125 -11.09375 Z M 8.546875 -11.109375 "/></g></g></g><g fill="#ffffff" fill-opacity="1"><g transform="translate(109.630228, 197.249987)"><g><path d="M 9.953125 -21.203125 C 10.128906 -21.242188 10.875 -21.265625 12.1875 -21.265625 C 13.507812 -21.265625 14.179688 -21.242188 14.203125 -21.203125 C 14.203125 -21.203125 14.203125 -21.195312 14.203125 -21.1875 C 14.203125 -20.875 13.535156 -19.117188 12.203125 -15.921875 C 10.878906 -12.734375 9.460938 -9.429688 7.953125 -6.015625 C 6.453125 -2.609375 5.5625 -0.710938 5.28125 -0.328125 L 5.0625 0 L 3.21875 -0.03125 C 1.957031 -0.0507812 1.269531 -0.0820312 1.15625 -0.125 C 1.007812 -0.164062 0.9375 -0.253906 0.9375 -0.390625 C 0.9375 -0.429688 0.957031 -0.53125 1 -0.6875 C 1.039062 -0.851562 1.296875 -1.535156 1.765625 -2.734375 C 1.785156 -2.773438 2.164062 -3.703125 2.90625 -5.515625 C 3.957031 -8.109375 5.253906 -11.15625 6.796875 -14.65625 C 7.285156 -15.789062 7.75 -16.875 8.1875 -17.90625 C 8.550781 -18.8125 8.832031 -19.460938 9.03125 -19.859375 C 9.238281 -20.253906 9.414062 -20.523438 9.5625 -20.671875 C 9.601562 -20.703125 9.625 -20.726562 9.625 -20.75 C 9.625 -20.769531 9.625 -20.78125 9.625 -20.78125 C 9.625 -20.78125 9.613281 -20.769531 9.59375 -20.75 C 9.550781 -20.726562 9.519531 -20.71875 9.5 -20.71875 C 9.457031 -20.71875 9.4375 -20.738281 9.4375 -20.78125 C 9.4375 -20.84375 9.484375 -20.921875 9.578125 -21.015625 C 9.679688 -21.109375 9.804688 -21.171875 9.953125 -21.203125 Z M 9.953125 -21.203125 "/></g></g></g><g fill="#ffffff" fill-opacity="1"><g transform="translate(124.794278, 197.249987)"><g><path d="M 2 -14.078125 L 1.96875 -21.1875 L 6.984375 -21.1875 L 6.890625 -14.875 L 6.890625 -14.78125 C 6.890625 -14.738281 6.890625 -14.695312 6.890625 -14.65625 L 6.890625 -14.5 C 6.890625 -14.476562 6.890625 -14.445312 6.890625 -14.40625 L 6.890625 -14.203125 C 6.890625 -14.097656 6.890625 -14.003906 6.890625 -13.921875 L 6.890625 -13.84375 C 6.890625 -13.800781 6.890625 -13.769531 6.890625 -13.75 L 6.890625 -13.65625 C 6.890625 -13.53125 6.890625 -13.410156 6.890625 -13.296875 L 6.890625 -12.625 C 6.890625 -12.582031 6.890625 -12.550781 6.890625 -12.53125 L 6.890625 -12.296875 C 6.890625 -12.273438 6.890625 -12.253906 6.890625 -12.234375 L 6.890625 -12.140625 C 6.890625 -12.117188 6.890625 -12.109375 6.890625 -12.109375 L 6.890625 -11.953125 C 6.890625 -11.890625 6.890625 -11.835938 6.890625 -11.796875 L 6.890625 -11.75 C 6.890625 -11.726562 6.890625 -11.707031 6.890625 -11.6875 L 6.890625 -11.625 C 6.890625 -11.539062 6.890625 -11.457031 6.890625 -11.375 L 6.890625 -10.796875 C 6.890625 -10.773438 6.890625 -10.75 6.890625 -10.71875 L 6.890625 -10.53125 C 6.890625 -9.882812 6.90625 -9.421875 6.9375 -9.140625 C 6.96875 -8.867188 6.984375 -8.585938 6.984375 -8.296875 C 6.984375 -8.003906 7.019531 -7.765625 7.09375 -7.578125 C 7.175781 -7.398438 7.234375 -7.238281 7.265625 -7.09375 C 7.296875 -6.957031 7.375 -6.773438 7.5 -6.546875 C 7.695312 -6.148438 7.960938 -5.78125 8.296875 -5.4375 C 8.628906 -5.09375 8.988281 -4.835938 9.375 -4.671875 C 9.84375 -4.492188 10.304688 -4.40625 10.765625 -4.40625 C 11.128906 -4.40625 11.617188 -4.5 12.234375 -4.6875 C 12.859375 -4.875 13.429688 -5.304688 13.953125 -5.984375 C 13.953125 -6.003906 13.960938 -6.03125 13.984375 -6.0625 C 14.328125 -6.613281 14.535156 -7.195312 14.609375 -7.8125 C 14.679688 -8.425781 14.726562 -10.375 14.75 -13.65625 C 14.769531 -13.976562 14.78125 -14.238281 14.78125 -14.4375 L 14.84375 -21.1875 L 19.609375 -21.1875 L 19.609375 -14.296875 C 19.609375 -13.304688 19.609375 -12.570312 19.609375 -12.09375 C 19.617188 -11.613281 19.625 -11.253906 19.625 -11.015625 C 19.625 -10.566406 19.617188 -10.160156 19.609375 -9.796875 C 19.609375 -9.429688 19.609375 -9.128906 19.609375 -8.890625 C 19.609375 -8.648438 19.609375 -8.457031 19.609375 -8.3125 C 19.609375 -8.175781 19.609375 -8.066406 19.609375 -7.984375 C 19.609375 -7.703125 19.578125 -7.398438 19.515625 -7.078125 C 19.453125 -6.765625 19.410156 -6.507812 19.390625 -6.3125 C 19.367188 -6.113281 19.320312 -5.890625 19.25 -5.640625 C 19.175781 -5.398438 19.097656 -5.203125 19.015625 -5.046875 C 18.941406 -4.898438 18.84375 -4.6875 18.71875 -4.40625 C 18.5625 -4.019531 18.394531 -3.679688 18.21875 -3.390625 C 18.050781 -3.109375 17.804688 -2.773438 17.484375 -2.390625 C 17.191406 -2.085938 16.890625 -1.816406 16.578125 -1.578125 C 16.265625 -1.335938 16.03125 -1.164062 15.875 -1.0625 C 15.238281 -0.695312 14.410156 -0.382812 13.390625 -0.125 C 12.367188 0.132812 11.457031 0.265625 10.65625 0.265625 C 10.207031 0.265625 9.625 0.195312 8.90625 0.0625 C 8.1875 -0.0625 7.644531 -0.179688 7.28125 -0.296875 C 6.675781 -0.523438 6.144531 -0.785156 5.6875 -1.078125 C 5.226562 -1.367188 4.78125 -1.757812 4.34375 -2.25 C 3.8125 -2.8125 3.390625 -3.367188 3.078125 -3.921875 C 2.765625 -4.484375 2.5 -5.179688 2.28125 -6.015625 C 2.15625 -6.472656 2.082031 -7.066406 2.0625 -7.796875 C 2.039062 -8.523438 2.019531 -10.617188 2 -14.078125 Z M 2 -14.078125 "/></g></g></g><g fill="#ffffff" fill-opacity="1"><g transform="translate(146.387882, 197.249987)"><g><path d="M 3.1875 -21.09375 C 3.46875 -21.113281 3.921875 -21.125 4.546875 -21.125 C 4.867188 -21.125 5.234375 -21.125 5.640625 -21.125 C 6.578125 -21.125 7.160156 -21.113281 7.390625 -21.09375 C 7.617188 -21.070312 7.828125 -20.988281 8.015625 -20.84375 C 8.253906 -20.707031 8.5625 -20.390625 8.9375 -19.890625 C 9.3125 -19.390625 9.84375 -18.632812 10.53125 -17.625 C 11.519531 -16.164062 12.085938 -15.304688 12.234375 -15.046875 C 14.316406 -11.410156 15.46875 -9.378906 15.6875 -8.953125 C 15.707031 -8.910156 15.726562 -8.890625 15.75 -8.890625 C 15.769531 -8.890625 15.789062 -8.941406 15.8125 -9.046875 C 15.851562 -9.347656 15.875 -11.289062 15.875 -14.875 L 15.90625 -20.453125 L 16.140625 -20.75 C 16.265625 -20.914062 16.410156 -21.015625 16.578125 -21.046875 C 16.753906 -21.078125 17.238281 -21.113281 18.03125 -21.15625 C 18.394531 -21.175781 18.707031 -21.1875 18.96875 -21.1875 C 19.507812 -21.1875 19.875 -21.15625 20.0625 -21.09375 L 20.453125 -20.9375 L 20.515625 -18.515625 C 20.578125 -16.890625 20.609375 -14.46875 20.609375 -11.25 C 20.609375 -10.445312 20.609375 -9.585938 20.609375 -8.671875 C 20.585938 -3.273438 20.535156 -0.484375 20.453125 -0.296875 C 20.390625 -0.160156 20.296875 -0.0820312 20.171875 -0.0625 C 20.015625 -0.0390625 19.429688 -0.0078125 18.421875 0.03125 C 18.097656 0.0507812 17.832031 0.0625 17.625 0.0625 C 17.53125 0.0625 17.40625 0.0546875 17.25 0.046875 C 17.09375 0.0351562 16.945312 -0.03125 16.8125 -0.15625 C 16.34375 -0.519531 15.257812 -2.046875 13.5625 -4.734375 C 11.863281 -7.421875 10.265625 -9.898438 8.765625 -12.171875 C 7.617188 -13.953125 7.035156 -14.851562 7.015625 -14.875 C 7.015625 -14.851562 7.015625 -14.84375 7.015625 -14.84375 C 7.015625 -14.820312 7.015625 -14.8125 7.015625 -14.8125 L 7.015625 -14.78125 C 7.015625 -14.757812 7.015625 -14.75 7.015625 -14.75 L 7.015625 -14.53125 C 7.015625 -14.53125 7.015625 -14.519531 7.015625 -14.5 L 7.015625 -14.40625 C 7.015625 -14.394531 7.015625 -14.378906 7.015625 -14.359375 L 7.015625 -14.328125 C 7.015625 -14.304688 7.015625 -14.296875 7.015625 -14.296875 L 7.015625 -14.265625 C 7.015625 -14.222656 7.015625 -14.179688 7.015625 -14.140625 L 7.015625 -14.109375 C 7.015625 -14.085938 7.015625 -14.066406 7.015625 -14.046875 L 7.015625 -13.921875 C 7.015625 -13.898438 7.015625 -13.875 7.015625 -13.84375 L 7.015625 -13.375 C 7.015625 -13.351562 7.015625 -13.335938 7.015625 -13.328125 L 7.015625 -13.171875 C 7.015625 -12.597656 7.019531 -11.984375 7.03125 -11.328125 C 7.050781 -10.671875 7.0625 -9.910156 7.0625 -9.046875 C 7.082031 -6.347656 7.09375 -4.3125 7.09375 -2.9375 C 7.09375 -1.539062 7.082031 -0.804688 7.0625 -0.734375 C 7.007812 -0.503906 6.847656 -0.332031 6.578125 -0.21875 C 6.398438 -0.09375 6.191406 -0.0195312 5.953125 0 C 5.722656 0.0195312 5.222656 0.03125 4.453125 0.03125 C 3.628906 0.03125 3.117188 0.0195312 2.921875 0 C 2.734375 -0.0195312 2.566406 -0.09375 2.421875 -0.21875 L 2.125 -0.453125 L 2.125 -11.625 C 2.125 -17.632812 2.15625 -20.664062 2.21875 -20.71875 C 2.238281 -20.78125 2.28125 -20.8125 2.34375 -20.8125 C 2.351562 -20.8125 2.378906 -20.800781 2.421875 -20.78125 C 2.441406 -20.78125 2.460938 -20.78125 2.484375 -20.78125 C 2.546875 -20.78125 2.597656 -20.820312 2.640625 -20.90625 C 2.679688 -21.007812 2.863281 -21.070312 3.1875 -21.09375 Z M 3.1875 -21.09375 "/></g></g></g><g fill="#ffffff" fill-opacity="1"><g transform="translate(169.133951, 197.249987)"><g><path d="M 2.15625 -21.15625 C 2.15625 -21.175781 2.195312 -21.191406 2.28125 -21.203125 C 2.5 -21.242188 3.21875 -21.265625 4.4375 -21.265625 L 6.796875 -21.265625 L 6.765625 -11.46875 L 6.765625 -0.03125 L 4.828125 0 C 4.335938 0.0195312 3.921875 0.03125 3.578125 0.03125 C 3.078125 0.03125 2.734375 0.0078125 2.546875 -0.03125 L 2.15625 -0.125 L 2.21875 -11.34375 C 2.238281 -13.488281 2.25 -15.28125 2.25 -16.71875 C 2.25 -19.613281 2.21875 -21.09375 2.15625 -21.15625 Z M 2.15625 -21.15625 "/></g></g></g><g fill="#ffffff" fill-opacity="1"><g transform="translate(178.050408, 197.249987)"><g><path d="M 9.671875 -21.421875 C 9.960938 -21.460938 10.398438 -21.484375 10.984375 -21.484375 C 11.179688 -21.484375 11.570312 -21.476562 12.15625 -21.46875 C 12.75 -21.457031 13.226562 -21.410156 13.59375 -21.328125 C 15.457031 -20.921875 17.003906 -19.953125 18.234375 -18.421875 C 18.679688 -17.867188 19.039062 -17.332031 19.3125 -16.8125 C 19.582031 -16.300781 19.84375 -15.679688 20.09375 -14.953125 C 20.351562 -14.109375 20.515625 -13.367188 20.578125 -12.734375 C 20.648438 -12.109375 20.6875 -11.414062 20.6875 -10.65625 C 20.6875 -10.46875 20.6875 -10.273438 20.6875 -10.078125 C 20.632812 -8.765625 20.441406 -7.585938 20.109375 -6.546875 C 19.785156 -5.515625 19.300781 -4.546875 18.65625 -3.640625 C 18.394531 -3.234375 17.960938 -2.78125 17.359375 -2.28125 C 16.753906 -1.789062 16.238281 -1.414062 15.8125 -1.15625 L 15.203125 -0.78125 L 15.46875 -0.515625 C 15.613281 -0.347656 15.878906 0.0625 16.265625 0.71875 C 16.648438 1.375 16.953125 1.953125 17.171875 2.453125 C 17.316406 2.773438 17.390625 3 17.390625 3.125 C 17.390625 3.1875 17.378906 3.226562 17.359375 3.25 C 17.253906 3.363281 16.9375 3.472656 16.40625 3.578125 C 15.882812 3.679688 15.28125 3.753906 14.59375 3.796875 C 14.488281 3.796875 14.347656 3.804688 14.171875 3.828125 C 13.984375 3.847656 13.847656 3.859375 13.765625 3.859375 C 13.691406 3.859375 13.597656 3.84375 13.484375 3.8125 C 13.378906 3.78125 13.304688 3.753906 13.265625 3.734375 C 13.222656 3.710938 13.148438 3.632812 13.046875 3.5 C 12.941406 3.375 12.859375 3.265625 12.796875 3.171875 C 12.742188 3.078125 12.632812 2.890625 12.46875 2.609375 C 12.351562 2.410156 12.253906 2.25 12.171875 2.125 C 11.742188 1.394531 11.378906 0.835938 11.078125 0.453125 L 10.71875 0 L 9.65625 -0.0625 C 8.71875 -0.144531 7.820312 -0.367188 6.96875 -0.734375 C 6.125 -1.097656 5.375 -1.585938 4.71875 -2.203125 C 4.0625 -2.816406 3.476562 -3.535156 2.96875 -4.359375 C 2.46875 -5.191406 2.085938 -6.101562 1.828125 -7.09375 C 1.578125 -8.09375 1.4375 -8.921875 1.40625 -9.578125 C 1.375 -10.234375 1.359375 -10.660156 1.359375 -10.859375 C 1.359375 -11.796875 1.460938 -12.75 1.671875 -13.71875 C 1.847656 -14.644531 2.109375 -15.472656 2.453125 -16.203125 C 2.796875 -16.929688 3.242188 -17.628906 3.796875 -18.296875 C 3.929688 -18.460938 4.054688 -18.59375 4.171875 -18.6875 C 4.285156 -18.789062 4.363281 -18.84375 4.40625 -18.84375 C 4.425781 -18.84375 4.4375 -18.84375 4.4375 -18.84375 C 4.445312 -18.820312 4.460938 -18.8125 4.484375 -18.8125 C 4.484375 -18.8125 4.484375 -18.820312 4.484375 -18.84375 C 4.484375 -18.84375 4.472656 -18.851562 4.453125 -18.875 C 4.441406 -18.894531 4.4375 -18.925781 4.4375 -18.96875 C 4.4375 -19.03125 4.484375 -19.097656 4.578125 -19.171875 C 4.679688 -19.316406 4.773438 -19.390625 4.859375 -19.390625 C 4.878906 -19.390625 4.898438 -19.378906 4.921875 -19.359375 C 4.921875 -19.359375 4.921875 -19.347656 4.921875 -19.328125 C 4.921875 -19.304688 4.910156 -19.273438 4.890625 -19.234375 C 4.890625 -19.210938 4.890625 -19.203125 4.890625 -19.203125 C 4.867188 -19.203125 4.859375 -19.203125 4.859375 -19.203125 C 4.859375 -19.203125 4.859375 -19.191406 4.859375 -19.171875 C 4.859375 -19.171875 4.878906 -19.179688 4.921875 -19.203125 C 4.921875 -19.203125 4.929688 -19.203125 4.953125 -19.203125 C 5.003906 -19.222656 5.03125 -19.253906 5.03125 -19.296875 C 5.03125 -19.316406 5.023438 -19.335938 5.015625 -19.359375 C 5.003906 -19.378906 5 -19.390625 5 -19.390625 C 5 -19.472656 5.140625 -19.617188 5.421875 -19.828125 C 5.710938 -20.035156 6.019531 -20.222656 6.34375 -20.390625 C 6.664062 -20.554688 6.878906 -20.640625 6.984375 -20.640625 C 7.003906 -20.640625 7.023438 -20.640625 7.046875 -20.640625 C 7.078125 -20.640625 7.101562 -20.640625 7.125 -20.640625 C 7.144531 -20.640625 7.15625 -20.640625 7.15625 -20.640625 C 7.15625 -20.660156 7.144531 -20.671875 7.125 -20.671875 C 7.125 -20.679688 7.164062 -20.710938 7.25 -20.765625 C 7.332031 -20.816406 7.453125 -20.867188 7.609375 -20.921875 C 7.773438 -20.972656 7.960938 -21.03125 8.171875 -21.09375 C 8.390625 -21.164062 8.628906 -21.226562 8.890625 -21.28125 C 9.148438 -21.332031 9.410156 -21.378906 9.671875 -21.421875 Z M 12.6875 -16.6875 C 12.238281 -16.894531 11.742188 -17 11.203125 -17 C 11.140625 -17 10.941406 -16.992188 10.609375 -16.984375 C 10.273438 -16.972656 9.851562 -16.820312 9.34375 -16.53125 C 8.269531 -15.945312 7.492188 -14.945312 7.015625 -13.53125 C 6.867188 -13.144531 6.78125 -12.8125 6.75 -12.53125 C 6.71875 -12.25 6.703125 -11.710938 6.703125 -10.921875 C 6.703125 -9.691406 6.820312 -8.6875 7.0625 -7.90625 C 7.3125 -7.125 7.738281 -6.410156 8.34375 -5.765625 C 8.8125 -5.296875 9.226562 -4.972656 9.59375 -4.796875 C 9.957031 -4.628906 10.453125 -4.546875 11.078125 -4.546875 C 11.703125 -4.546875 12.203125 -4.628906 12.578125 -4.796875 C 12.953125 -4.972656 13.378906 -5.304688 13.859375 -5.796875 C 14.109375 -6.054688 14.296875 -6.289062 14.421875 -6.5 C 14.554688 -6.71875 14.695312 -7.019531 14.84375 -7.40625 C 15.28125 -8.613281 15.5 -9.84375 15.5 -11.09375 C 15.5 -12.351562 15.28125 -13.46875 14.84375 -14.4375 C 14.632812 -14.863281 14.3125 -15.300781 13.875 -15.75 C 13.445312 -16.195312 13.050781 -16.507812 12.6875 -16.6875 Z M 12.6875 -16.6875 "/></g></g></g><g fill="#ffffff" fill-opacity="1"><g transform="translate(200.129264, 197.249987)"><g><path d="M 2 -14.078125 L 1.96875 -21.1875 L 6.984375 -21.1875 L 6.890625 -14.875 L 6.890625 -14.78125 C 6.890625 -14.738281 6.890625 -14.695312 6.890625 -14.65625 L 6.890625 -14.5 C 6.890625 -14.476562 6.890625 -14.445312 6.890625 -14.40625 L 6.890625 -14.203125 C 6.890625 -14.097656 6.890625 -14.003906 6.890625 -13.921875 L 6.890625 -13.84375 C 6.890625 -13.800781 6.890625 -13.769531 6.890625 -13.75 L 6.890625 -13.65625 C 6.890625 -13.53125 6.890625 -13.410156 6.890625 -13.296875 L 6.890625 -12.625 C 6.890625 -12.582031 6.890625 -12.550781 6.890625 -12.53125 L 6.890625 -12.296875 C 6.890625 -12.273438 6.890625 -12.253906 6.890625 -12.234375 L 6.890625 -12.140625 C 6.890625 -12.117188 6.890625 -12.109375 6.890625 -12.109375 L 6.890625 -11.953125 C 6.890625 -11.890625 6.890625 -11.835938 6.890625 -11.796875 L 6.890625 -11.75 C 6.890625 -11.726562 6.890625 -11.707031 6.890625 -11.6875 L 6.890625 -11.625 C 6.890625 -11.539062 6.890625 -11.457031 6.890625 -11.375 L 6.890625 -10.796875 C 6.890625 -10.773438 6.890625 -10.75 6.890625 -10.71875 L 6.890625 -10.53125 C 6.890625 -9.882812 6.90625 -9.421875 6.9375 -9.140625 C 6.96875 -8.867188 6.984375 -8.585938 6.984375 -8.296875 C 6.984375 -8.003906 7.019531 -7.765625 7.09375 -7.578125 C 7.175781 -7.398438 7.234375 -7.238281 7.265625 -7.09375 C 7.296875 -6.957031 7.375 -6.773438 7.5 -6.546875 C 7.695312 -6.148438 7.960938 -5.78125 8.296875 -5.4375 C 8.628906 -5.09375 8.988281 -4.835938 9.375 -4.671875 C 9.84375 -4.492188 10.304688 -4.40625 10.765625 -4.40625 C 11.128906 -4.40625 11.617188 -4.5 12.234375 -4.6875 C 12.859375 -4.875 13.429688 -5.304688 13.953125 -5.984375 C 13.953125 -6.003906 13.960938 -6.03125 13.984375 -6.0625 C 14.328125 -6.613281 14.535156 -7.195312 14.609375 -7.8125 C 14.679688 -8.425781 14.726562 -10.375 14.75 -13.65625 C 14.769531 -13.976562 14.78125 -14.238281 14.78125 -14.4375 L 14.84375 -21.1875 L 19.609375 -21.1875 L 19.609375 -14.296875 C 19.609375 -13.304688 19.609375 -12.570312 19.609375 -12.09375 C 19.617188 -11.613281 19.625 -11.253906 19.625 -11.015625 C 19.625 -10.566406 19.617188 -10.160156 19.609375 -9.796875 C 19.609375 -9.429688 19.609375 -9.128906 19.609375 -8.890625 C 19.609375 -8.648438 19.609375 -8.457031 19.609375 -8.3125 C 19.609375 -8.175781 19.609375 -8.066406 19.609375 -7.984375 C 19.609375 -7.703125 19.578125 -7.398438 19.515625 -7.078125 C 19.453125 -6.765625 19.410156 -6.507812 19.390625 -6.3125 C 19.367188 -6.113281 19.320312 -5.890625 19.25 -5.640625 C 19.175781 -5.398438 19.097656 -5.203125 19.015625 -5.046875 C 18.941406 -4.898438 18.84375 -4.6875 18.71875 -4.40625 C 18.5625 -4.019531 18.394531 -3.679688 18.21875 -3.390625 C 18.050781 -3.109375 17.804688 -2.773438 17.484375 -2.390625 C 17.191406 -2.085938 16.890625 -1.816406 16.578125 -1.578125 C 16.265625 -1.335938 16.03125 -1.164062 15.875 -1.0625 C 15.238281 -0.695312 14.410156 -0.382812 13.390625 -0.125 C 12.367188 0.132812 11.457031 0.265625 10.65625 0.265625 C 10.207031 0.265625 9.625 0.195312 8.90625 0.0625 C 8.1875 -0.0625 7.644531 -0.179688 7.28125 -0.296875 C 6.675781 -0.523438 6.144531 -0.785156 5.6875 -1.078125 C 5.226562 -1.367188 4.78125 -1.757812 4.34375 -2.25 C 3.8125 -2.8125 3.390625 -3.367188 3.078125 -3.921875 C 2.765625 -4.484375 2.5 -5.179688 2.28125 -6.015625 C 2.15625 -6.472656 2.082031 -7.066406 2.0625 -7.796875 C 2.039062 -8.523438 2.019531 -10.617188 2 -14.078125 Z M 2 -14.078125 "/></g></g></g><g fill="#ffffff" fill-opacity="1"><g transform="translate(221.722868, 197.249987)"><g><path d="M 2.609375 -20.9375 C 3.035156 -20.976562 5.191406 -21 9.078125 -21 C 12.972656 -21 15.078125 -20.976562 15.390625 -20.9375 L 15.984375 -20.875 L 15.9375 -17.265625 L 10.890625 -17.265625 L 6.734375 -17.296875 L 6.734375 -4 L 16.171875 -4 L 16.171875 -0.1875 L 2.125 -0.1875 L 2.125 -20.90625 Z M 9.796875 -13.015625 L 10.140625 -13.015625 C 10.253906 -13.015625 10.363281 -13.015625 10.46875 -13.015625 L 10.6875 -13.015625 C 10.78125 -13.015625 10.867188 -13.015625 10.953125 -13.015625 L 11.25 -13.015625 C 11.3125 -13.015625 11.375 -13.015625 11.4375 -13.015625 L 11.625 -13.015625 C 11.6875 -13.015625 11.734375 -13.015625 11.765625 -13.015625 L 12.265625 -13.015625 C 12.296875 -13.015625 12.34375 -13.015625 12.40625 -13.015625 L 12.53125 -13.015625 C 12.570312 -13.015625 12.613281 -13.015625 12.65625 -13.015625 L 13.71875 -13.015625 C 13.738281 -13.015625 13.757812 -13.015625 13.78125 -13.015625 L 15.234375 -13.015625 L 15.265625 -12.46875 C 15.265625 -12.332031 15.265625 -12.171875 15.265625 -11.984375 C 15.265625 -11.597656 15.253906 -11.113281 15.234375 -10.53125 L 15.140625 -9.140625 L 11.40625 -9.140625 C 9.238281 -9.140625 8.023438 -9.164062 7.765625 -9.21875 L 7.4375 -9.28125 L 7.4375 -12.984375 Z M 9.796875 -13.015625 "/></g></g></g><g fill="#ffffff" fill-opacity="1"><g transform="translate(239.191849, 197.249987)"><g><path d="M 10.109375 -21.421875 C 10.265625 -21.460938 10.554688 -21.484375 10.984375 -21.484375 C 11.328125 -21.484375 11.910156 -21.460938 12.734375 -21.421875 C 13.566406 -21.378906 14.144531 -21.304688 14.46875 -21.203125 C 15.425781 -20.941406 16.34375 -20.476562 17.21875 -19.8125 C 18.101562 -19.144531 18.816406 -18.378906 19.359375 -17.515625 C 19.921875 -16.617188 20.332031 -15.703125 20.59375 -14.765625 C 20.863281 -13.835938 21.03125 -12.71875 21.09375 -11.40625 C 21.113281 -11.144531 21.125 -10.875 21.125 -10.59375 C 21.125 -8.0625 20.503906 -5.863281 19.265625 -4 C 18.535156 -2.894531 17.585938 -1.992188 16.421875 -1.296875 C 15.265625 -0.597656 14.242188 -0.179688 13.359375 -0.046875 C 12.484375 0.0859375 11.800781 0.15625 11.3125 0.15625 C 10.507812 0.15625 9.5625 0.03125 8.46875 -0.21875 C 7.375 -0.476562 6.28125 -1.03125 5.1875 -1.875 C 4.300781 -2.5625 3.519531 -3.515625 2.84375 -4.734375 C 2.175781 -5.960938 1.734375 -7.265625 1.515625 -8.640625 C 1.410156 -9.296875 1.359375 -9.921875 1.359375 -10.515625 C 1.359375 -11.109375 1.410156 -11.832031 1.515625 -12.6875 C 1.679688 -14.0625 1.972656 -15.207031 2.390625 -16.125 C 2.816406 -17.050781 3.445312 -17.957031 4.28125 -18.84375 C 4.988281 -19.570312 5.582031 -20.054688 6.0625 -20.296875 C 7.039062 -20.765625 8.015625 -21.078125 8.984375 -21.234375 C 9.140625 -21.253906 9.347656 -21.289062 9.609375 -21.34375 C 9.878906 -21.394531 10.046875 -21.421875 10.109375 -21.421875 Z M 13.078125 -17.015625 C 12.453125 -17.265625 11.84375 -17.390625 11.25 -17.390625 C 10.582031 -17.390625 9.8125 -17.15625 8.9375 -16.6875 C 8.070312 -16.21875 7.359375 -15.21875 6.796875 -13.6875 C 6.671875 -13.34375 6.578125 -13.015625 6.515625 -12.703125 C 6.460938 -12.390625 6.425781 -11.898438 6.40625 -11.234375 C 6.382812 -11.003906 6.375 -10.78125 6.375 -10.5625 C 6.375 -9.507812 6.507812 -8.570312 6.78125 -7.75 C 7.050781 -6.9375 7.53125 -6.175781 8.21875 -5.46875 C 8.726562 -4.957031 9.179688 -4.613281 9.578125 -4.4375 C 9.972656 -4.269531 10.539062 -4.1875 11.28125 -4.1875 C 11.726562 -4.1875 12.0625 -4.203125 12.28125 -4.234375 C 12.507812 -4.265625 12.765625 -4.347656 13.046875 -4.484375 C 13.410156 -4.648438 13.785156 -4.921875 14.171875 -5.296875 C 14.554688 -5.671875 14.867188 -6.0625 15.109375 -6.46875 C 15.753906 -7.539062 16.101562 -8.546875 16.15625 -9.484375 C 16.207031 -10.421875 16.234375 -11.003906 16.234375 -11.234375 C 16.234375 -12.585938 16 -13.726562 15.53125 -14.65625 C 15.3125 -15.175781 14.957031 -15.660156 14.46875 -16.109375 C 13.988281 -16.554688 13.523438 -16.859375 13.078125 -17.015625 Z M 13.078125 -17.015625 "/></g></g></g><g fill="#ffffff" fill-opacity="1"><g transform="translate(261.664966, 197.249987)"><g><path d="M 3 -21.203125 C 3.488281 -21.222656 5.046875 -21.234375 7.671875 -21.234375 C 9.273438 -21.210938 10.40625 -21.1875 11.0625 -21.15625 C 11.71875 -21.132812 12.25 -21.066406 12.65625 -20.953125 C 13.0625 -20.835938 13.515625 -20.648438 14.015625 -20.390625 C 14.503906 -20.148438 14.976562 -19.800781 15.4375 -19.34375 C 15.90625 -18.882812 16.234375 -18.445312 16.421875 -18.03125 C 16.597656 -17.644531 16.742188 -17.148438 16.859375 -16.546875 C 16.984375 -15.953125 17.046875 -15.429688 17.046875 -14.984375 C 17.046875 -14.566406 16.96875 -14.023438 16.8125 -13.359375 C 16.664062 -12.703125 16.492188 -12.179688 16.296875 -11.796875 C 16.066406 -11.378906 15.734375 -10.9375 15.296875 -10.46875 C 14.867188 -10 14.441406 -9.632812 14.015625 -9.375 C 13.859375 -9.269531 13.710938 -9.160156 13.578125 -9.046875 C 13.441406 -8.941406 13.375 -8.867188 13.375 -8.828125 C 13.375 -8.765625 13.800781 -7.960938 14.65625 -6.421875 C 15.507812 -4.890625 16.164062 -3.738281 16.625 -2.96875 C 17.175781 -2.164062 17.601562 -1.539062 17.90625 -1.09375 C 18.351562 -0.46875 18.578125 -0.125 18.578125 -0.0625 C 18.578125 -0.0625 18.570312 -0.0507812 18.5625 -0.03125 C 18.550781 -0.0078125 17.664062 0 15.90625 0 L 13.296875 0 L 12.890625 -0.546875 C 12.410156 -1.234375 11.550781 -2.625 10.3125 -4.71875 C 9.082031 -6.8125 8.46875 -7.945312 8.46875 -8.125 C 8.46875 -8.1875 8.335938 -8.21875 8.078125 -8.21875 L 7.046875 -8.21875 L 7.09375 0 L 2.125 -0.0625 L 2.125 -9.65625 C 2.125 -15.976562 2.15625 -19.492188 2.21875 -20.203125 L 2.28125 -21.1875 Z M 7.015625 -12.015625 C 7.898438 -12.054688 8.597656 -12.085938 9.109375 -12.109375 C 10.015625 -12.148438 10.738281 -12.398438 11.28125 -12.859375 C 11.832031 -13.328125 12.109375 -13.914062 12.109375 -14.625 C 12.109375 -14.644531 12.109375 -14.675781 12.109375 -14.71875 C 12.109375 -15.425781 11.875 -15.992188 11.40625 -16.421875 C 11.125 -16.703125 10.765625 -16.894531 10.328125 -17 C 9.890625 -17.113281 9.238281 -17.210938 8.375 -17.296875 L 6.953125 -17.359375 Z M 7.015625 -12.015625 "/></g></g></g><g fill="#ffffff" fill-opacity="1"><g transform="translate(280.923299, 197.249987)"><g><path d="M 4.3125 -21.296875 C 5.644531 -21.316406 6.816406 -21.328125 7.828125 -21.328125 C 10.253906 -21.328125 11.78125 -21.25 12.40625 -21.09375 C 13.363281 -20.863281 14.21875 -20.457031 14.96875 -19.875 C 15.726562 -19.289062 16.289062 -18.601562 16.65625 -17.8125 C 17.082031 -16.90625 17.304688 -16.171875 17.328125 -15.609375 C 17.347656 -15.054688 17.359375 -14.71875 17.359375 -14.59375 C 17.359375 -13.726562 17.222656 -12.875 16.953125 -12.03125 C 16.691406 -11.1875 16.265625 -10.378906 15.671875 -9.609375 C 15.078125 -8.847656 14.363281 -8.242188 13.53125 -7.796875 C 12.925781 -7.472656 12.320312 -7.25 11.71875 -7.125 C 11.125 -7.007812 10.460938 -6.953125 9.734375 -6.953125 C 9.617188 -6.953125 9.5 -6.953125 9.375 -6.953125 C 8.707031 -6.953125 8.28125 -6.96875 8.09375 -7 C 7.914062 -7.039062 7.816406 -7.113281 7.796875 -7.21875 C 7.796875 -7.320312 7.785156 -7.414062 7.765625 -7.5 C 7.765625 -7.5625 7.742188 -8.203125 7.703125 -9.421875 C 7.660156 -10.640625 7.640625 -11.25 7.640625 -11.25 C 7.640625 -11.25 7.703125 -11.253906 7.828125 -11.265625 C 7.953125 -11.273438 8.082031 -11.289062 8.21875 -11.3125 C 8.363281 -11.332031 8.546875 -11.34375 8.765625 -11.34375 C 9.660156 -11.445312 10.3125 -11.585938 10.71875 -11.765625 C 11.21875 -12.015625 11.632812 -12.382812 11.96875 -12.875 C 12.300781 -13.375 12.46875 -13.882812 12.46875 -14.40625 C 12.46875 -14.71875 12.359375 -15.066406 12.140625 -15.453125 C 11.929688 -15.847656 11.707031 -16.171875 11.46875 -16.421875 C 11.144531 -16.703125 10.765625 -16.898438 10.328125 -17.015625 C 9.890625 -17.140625 9.238281 -17.210938 8.375 -17.234375 L 6.921875 -17.265625 C 6.921875 -5.953125 6.890625 -0.238281 6.828125 -0.125 C 6.785156 -0.0625 6.398438 -0.0234375 5.671875 -0.015625 C 4.941406 -0.00390625 4.5 0 4.34375 0 C 3.363281 0 2.742188 -0.03125 2.484375 -0.09375 L 2.125 -0.15625 L 2.125 -21.296875 Z M 4.3125 -21.296875 "/></g></g></g></svg>